  0
SECTION
  2
HEADER
  9
$ACADVER
  1
AC1032
  9
$ACADMAINTVER
 90
      197
  9
$DWGCODEPAGE
  3
ANSI_1252
  9
$LASTSAVEDBY
  1
jdski
  9
$REQUIREDVERSIONS
160
                 0
  9
$INSBASE
 10
0.0
 20
0.0
 30
0.0
  9
$EXTMIN
 10
-1214.908062202709
 20
-260.0554688774569
 30
0.0
  9
$EXTMAX
 10
967.2356803573475
 20
1180.404627264618
 30
0.0
  9
$LIMMIN
 10
0.0
 20
0.0
  9
$LIMMAX
 10
12.0
 20
9.0
  9
$ORTHOMODE
 70
     0
  9
$REGENMODE
 70
     1
  9
$FILLMODE
 70
     1
  9
$QTEXTMODE
 70
     0
  9
$MIRRTEXT
 70
     0
  9
$LTSCALE
 40
1.0
  9
$ATTMODE
 70
     1
  9
$TEXTSIZE
 40
0.2
  9
$TRACEWID
 40
0.05
  9
$TEXTSTYLE
  7
Standard
  9
$CLAYER
  8
0
  9
$CELTYPE
  6
CONTINUOUS
  9
$CECOLOR
 62
   256
  9
$CELTSCALE
 40
1.0
  9
$DISPSILH
 70
     0
  9
$DIMSCALE
 40
1.0
  9
$DIMASZ
 40
0.18
  9
$DIMEXO
 40
0.0625
  9
$DIMDLI
 40
0.38
  9
$DIMRND
 40
0.0
  9
$DIMDLE
 40
0.0
  9
$DIMEXE
 40
0.18
  9
$DIMTP
 40
0.0
  9
$DIMTM
 40
0.0
  9
$DIMTXT
 40
0.18
  9
$DIMCEN
 40
0.09
  9
$DIMTSZ
 40
0.0
  9
$DIMTOL
 70
     0
  9
$DIMLIM
 70
     0
  9
$DIMTIH
 70
     1
  9
$DIMTOH
 70
     1
  9
$DIMSE1
 70
     0
  9
$DIMSE2
 70
     0
  9
$DIMTAD
 70
     0
  9
$DIMZIN
 70
     0
  9
$DIMBLK
  1

  9
$DIMASO
 70
     1
  9
$DIMSHO
 70
     1
  9
$DIMPOST
  1

  9
$DIMAPOST
  1

  9
$DIMALT
 70
     0
  9
$DIMALTD
 70
     2
  9
$DIMALTF
 40
25.4
  9
$DIMLFAC
 40
1.0
  9
$DIMTOFL
 70
     0
  9
$DIMTVP
 40
0.0
  9
$DIMTIX
 70
     0
  9
$DIMSOXD
 70
     0
  9
$DIMSAH
 70
     0
  9
$DIMBLK1
  1

  9
$DIMBLK2
  1

  9
$DIMSTYLE
  2
Standard
  9
$DIMCLRD
 70
     0
  9
$DIMCLRE
 70
     0
  9
$DIMCLRT
 70
     0
  9
$DIMTFAC
 40
1.0
  9
$DIMGAP
 40
0.09
  9
$DIMJUST
 70
     0
  9
$DIMSD1
 70
     0
  9
$DIMSD2
 70
     0
  9
$DIMTOLJ
 70
     1
  9
$DIMTZIN
 70
     0
  9
$DIMALTZ
 70
     0
  9
$DIMALTTZ
 70
     0
  9
$DIMUPT
 70
     0
  9
$DIMDEC
 70
     4
  9
$DIMTDEC
 70
     4
  9
$DIMALTU
 70
     2
  9
$DIMALTTD
 70
     2
  9
$DIMTXSTY
  7
Standard
  9
$DIMAUNIT
 70
     0
  9
$DIMADEC
 70
     0
  9
$DIMALTRND
 40
0.0
  9
$DIMAZIN
 70
     0
  9
$DIMDSEP
 70
    46
  9
$DIMATFIT
 70
     3
  9
$DIMFRAC
 70
     0
  9
$DIMLDRBLK
  1

  9
$DIMLUNIT
 70
     2
  9
$DIMLWD
 70
    -2
  9
$DIMLWE
 70
    -2
  9
$DIMTMOVE
 70
     0
  9
$DIMFXL
 40
1.0
  9
$DIMFXLON
 70
     0
  9
$DIMJOGANG
 40
0.7853981633974483
  9
$DIMTFILL
 70
     0
  9
$DIMTFILLCLR
 70
     0
  9
$DIMARCSYM
 70
     0
  9
$DIMLTYPE
  6

  9
$DIMLTEX1
  6

  9
$DIMLTEX2
  6

  9
$DIMTXTDIRECTION
 70
     0
  9
$LUNITS
 70
     2
  9
$LUPREC
 70
     4
  9
$SKETCHINC
 40
0.1
  9
$FILLETRAD
 40
10.0
  9
$AUNITS
 70
     0
  9
$AUPREC
 70
     0
  9
$MENU
  1
.
  9
$ELEVATION
 40
0.0
  9
$PELEVATION
 40
0.0
  9
$THICKNESS
 40
0.0
  9
$LIMCHECK
 70
     0
  9
$CHAMFERA
 40
0.0
  9
$CHAMFERB
 40
0.0
  9
$CHAMFERC
 40
0.0
  9
$CHAMFERD
 40
0.0
  9
$SKPOLY
 70
     0
  9
$TDCREATE
 40
2459623.557708333
  9
$TDUCREATE
 40
2459623.891041667
  9
$TDUPDATE
 40
2459628.752337963
  9
$TDUUPDATE
 40
2459629.085671297
  9
$TDINDWG
 40
1.2010185185
  9
$TDUSRTIMER
 40
1.2010185185
  9
$USRTIMER
 70
     1
  9
$ANGBASE
 50
0.0
  9
$ANGDIR
 70
     0
  9
$PDMODE
 70
     0
  9
$PDSIZE
 40
0.0
  9
$PLINEWID
 40
0.0
  9
$SPLFRAME
 70
     0
  9
$SPLINETYPE
 70
     6
  9
$SPLINESEGS
 70
     8
  9
$HANDSEED
  5
7CB
  9
$SURFTAB1
 70
     6
  9
$SURFTAB2
 70
     6
  9
$SURFTYPE
 70
     6
  9
$SURFU
 70
     6
  9
$SURFV
 70
     6
  9
$UCSBASE
  2

  9
$UCSNAME
  2

  9
$UCSORG
 10
0.0
 20
0.0
 30
0.0
  9
$UCSXDIR
 10
1.0
 20
0.0
 30
0.0
  9
$UCSYDIR
 10
0.0
 20
1.0
 30
0.0
  9
$UCSORTHOREF
  2

  9
$UCSORTHOVIEW
 70
     0
  9
$UCSORGTOP
 10
0.0
 20
0.0
 30
0.0
  9
$UCSORGBOTTOM
 10
0.0
 20
0.0
 30
0.0
  9
$UCSORGLEFT
 10
0.0
 20
0.0
 30
0.0
  9
$UCSORGRIGHT
 10
0.0
 20
0.0
 30
0.0
  9
$UCSORGFRONT
 10
0.0
 20
0.0
 30
0.0
  9
$UCSORGBACK
 10
0.0
 20
0.0
 30
0.0
  9
$PUCSBASE
  2

  9
$PUCSNAME
  2

  9
$PUCSORG
 10
0.0
 20
0.0
 30
0.0
  9
$PUCSXDIR
 10
1.0
 20
0.0
 30
0.0
  9
$PUCSYDIR
 10
0.0
 20
1.0
 30
0.0
  9
$PUCSORTHOREF
  2

  9
$PUCSORTHOVIEW
 70
     0
  9
$PUCSORGTOP
 10
0.0
 20
0.0
 30
0.0
  9
$PUCSORGBOTTOM
 10
0.0
 20
0.0
 30
0.0
  9
$PUCSORGLEFT
 10
0.0
 20
0.0
 30
0.0
  9
$PUCSORGRIGHT
 10
0.0
 20
0.0
 30
0.0
  9
$PUCSORGFRONT
 10
0.0
 20
0.0
 30
0.0
  9
$PUCSORGBACK
 10
0.0
 20
0.0
 30
0.0
  9
$USERI1
 70
     0
  9
$USERI2
 70
     0
  9
$USERI3
 70
     0
  9
$USERI4
 70
     0
  9
$USERI5
 70
     0
  9
$USERR1
 40
0.0
  9
$USERR2
 40
0.0
  9
$USERR3
 40
0.0
  9
$USERR4
 40
0.0
  9
$USERR5
 40
0.0
  9
$WORLDVIEW
 70
     1
  9
$SHADEDGE
 70
     3
  9
$SHADEDIF
 70
    70
  9
$TILEMODE
 70
     1
  9
$MAXACTVP
 70
    64
  9
$PINSBASE
 10
0.0
 20
0.0
 30
0.0
  9
$PLIMCHECK
 70
     0
  9
$PEXTMIN
 10
1.000000000000000E+20
 20
1.000000000000000E+20
 30
1.000000000000000E+20
  9
$PEXTMAX
 10
-1.000000000000000E+20
 20
-1.000000000000000E+20
 30
-1.000000000000000E+20
  9
$PLIMMIN
 10
0.0
 20
0.0
  9
$PLIMMAX
 10
12.0
 20
9.0
  9
$UNITMODE
 70
     0
  9
$VISRETAIN
 70
     1
  9
$PLINEGEN
 70
     0
  9
$PSLTSCALE
 70
     1
  9
$TREEDEPTH
 70
  3020
  9
$CMLSTYLE
  2
Standard
  9
$CMLJUST
 70
     0
  9
$CMLSCALE
 40
1.0
  9
$PROXYGRAPHICS
 70
     1
  9
$MEASUREMENT
 70
     0
  9
$CELWEIGHT
370
    -1
  9
$ENDCAPS
280
     0
  9
$JOINSTYLE
280
     0
  9
$LWDISPLAY
290
     0
  9
$INSUNITS
 70
     4
  9
$HYPERLINKBASE
  1

  9
$STYLESHEET
  1

  9
$XEDIT
290
     1
  9
$CEPSNTYPE
380
     0
  9
$PSTYLEMODE
290
     1
  9
$FINGERPRINTGUID
  2
{6B8AF2A6-B187-7A48-A2DC-86136C626B50}
  9
$VERSIONGUID
  2
{C4C00FFE-ED69-A84A-9345-131C217D425D}
  9
$EXTNAMES
290
     1
  9
$PSVPSCALE
 40
0.0
  9
$OLESTARTUP
290
     0
  9
$SORTENTS
280
   127
  9
$INDEXCTL
280
     0
  9
$HIDETEXT
280
     0
  9
$XCLIPFRAME
280
     2
  9
$HALOGAP
280
     0
  9
$OBSCOLOR
 70
   257
  9
$OBSLTYPE
280
     0
  9
$INTERSECTIONDISPLAY
280
     0
  9
$INTERSECTIONCOLOR
 70
   257
  9
$DIMASSOC
280
     1
  9
$PROJECTNAME
  1

  9
$CAMERADISPLAY
290
     0
  9
$LENSLENGTH
 40
50.0
  9
$CAMERAHEIGHT
 40
0.0
  9
$STEPSPERSEC
 40
2.0
  9
$STEPSIZE
 40
6.0
  9
$3DDWFPREC
 40
2.0
  9
$PSOLWIDTH
 40
0.25
  9
$PSOLHEIGHT
 40
4.0
  9
$LOFTANG1
 40
1.570796326794896
  9
$LOFTANG2
 40
1.570796326794896
  9
$LOFTMAG1
 40
0.0
  9
$LOFTMAG2
 40
0.0
  9
$LOFTPARAM
 70
     7
  9
$LOFTNORMALS
280
     1
  9
$LATITUDE
 40
37.795
  9
$LONGITUDE
 40
-122.394
  9
$NORTHDIRECTION
 40
0.0
  9
$TIMEZONE
 70
 -8000
  9
$LIGHTGLYPHDISPLAY
280
     1
  9
$TILEMODELIGHTSYNCH
280
     1
  9
$CMATERIAL
347
11
  9
$SOLIDHIST
280
     0
  9
$SHOWHIST
280
     1
  9
$DWFFRAME
280
     2
  9
$DGNFRAME
280
     0
  9
$REALWORLDSCALE
290
     1
  9
$INTERFERECOLOR
 62
     1
  9
$INTERFEREOBJVS
345
33
  9
$INTERFEREVPVS
346
30
  9
$CSHADOW
280
     0
  9
$SHADOWPLANELOCATION
 40
0.0
  0
ENDSEC
  0
SECTION
  2
CLASSES
  0
CLASS
  1
ACDBDICTIONARYWDFLT
  2
AcDbDictionaryWithDefault
  3
ObjectDBX Classes
 90
        0
 91
        1
280
     0
281
     0
  0
CLASS
  1
MATERIAL
  2
AcDbMaterial
  3
ObjectDBX Classes
 90
     1153
 91
        3
280
     0
281
     0
  0
CLASS
  1
VISUALSTYLE
  2
AcDbVisualStyle
  3
ObjectDBX Classes
 90
     4095
 91
       24
280
     0
281
     0
  0
CLASS
  1
SCALE
  2
AcDbScale
  3
ObjectDBX Classes
 90
     1153
 91
       17
280
     0
281
     0
  0
CLASS
  1
TABLESTYLE
  2
AcDbTableStyle
  3
ObjectDBX Classes
 90
     4095
 91
        1
280
     0
281
     0
  0
CLASS
  1
MLEADERSTYLE
  2
AcDbMLeaderStyle
  3
ACDB_MLEADERSTYLE_CLASS
 90
     4095
 91
        1
280
     0
281
     0
  0
CLASS
  1
ACDBSECTIONVIEWSTYLE
  2
AcDbSectionViewStyle
  3
ObjectDBX Classes
 90
     1025
 91
        1
280
     0
281
     0
  0
CLASS
  1
ACDBDETAILVIEWSTYLE
  2
AcDbDetailViewStyle
  3
ObjectDBX Classes
 90
     1025
 91
        1
280
     0
281
     0
  0
CLASS
  1
SORTENTSTABLE
  2
AcDbSortentsTable
  3
ObjectDBX Classes
 90
        0
 91
        1
280
     0
281
     0
  0
CLASS
  1
DICTIONARYVAR
  2
AcDbDictionaryVar
  3
ObjectDBX Classes
 90
        0
 91
        9
280
     0
281
     0
  0
CLASS
  1
CELLSTYLEMAP
  2
AcDbCellStyleMap
  3
ObjectDBX Classes
 90
     1152
 91
        1
280
     0
281
     0
  0
ENDSEC
  0
SECTION
  2
TABLES
  0
TABLE
  2
VPORT
  5
8
330
0
100
AcDbSymbolTable
 70
     1
  0
VPORT
  5
74
330
8
100
AcDbSymbolTableRecord
100
AcDbViewportTableRecord
  2
*Active
 70
     0
 10
0.0
 20
0.0
 11
1.0
 21
1.0
 12
-599.176886189155
 22
-134.3176650709672
 13
0.0
 23
0.0
 14
1.0
 24
1.0
 15
0.0
 25
0.0
 16
0.0
 26
0.0
 36
1.0
 17
0.0
 27
0.0
 37
0.0
 40
855.3084292989064
 41
2.241212121212121
 42
50.0
 43
0.0
 44
0.0
 50
0.0
 51
0.0
 71
     0
 72
   100
 73
     1
 74
     1
 75
     0
 76
     0
 77
     0
 78
     0
281
     0
 65
     1
110
0.0
120
0.0
130
0.0
111
1.0
121
0.0
131
0.0
112
0.0
122
1.0
132
0.0
 79
     0
146
0.0
348
2F
 60
     3
 61
     5
292
     1
282
     1
141
0.0
142
0.0
 63
   250
421
  3355443
1001
ACAD_NAV_VCDISPLAY
1070
     3
  0
ENDTAB
  0
TABLE
  2
LTYPE
  5
5
330
0
100
AcDbSymbolTable
 70
     2
  0
LTYPE
  5
5A
330
5
100
AcDbSymbolTableRecord
100
AcDbLinetypeTableRecord
  2
ByBlock
 70
     0
  3

 72
    65
 73
     0
 40
0.0
  0
LTYPE
  5
5B
330
5
100
AcDbSymbolTableRecord
100
AcDbLinetypeTableRecord
  2
ByLayer
 70
     0
  3

 72
    65
 73
     0
 40
0.0
  0
LTYPE
  5
5C
330
5
100
AcDbSymbolTableRecord
100
AcDbLinetypeTableRecord
  2
CONTINUOUS
 70
     0
  3
______
 72
    65
 73
     0
 40
0.0
  0
ENDTAB
  0
TABLE
  2
LAYER
  5
2
102
{ACAD_XDICTIONARY
360
53E
102
}
330
0
100
AcDbSymbolTable
 70
    12
  0
LAYER
  5
54
102
{ACAD_XDICTIONARY
360
727
102
}
330
2
100
AcDbSymbolTableRecord
100
AcDbLayerTableRecord
  2
0
 70
     0
 62
     7
  6
CONTINUOUS
370
    -3
390
F
347
21
348
0
  0
LAYER
  5
5A6
102
{ACAD_XDICTIONARY
360
73D
102
}
330
2
100
AcDbSymbolTableRecord
100
AcDbLayerTableRecord
  2
defpoint
 70
     0
 62
     6
  6
CONTINUOUS
290
     0
370
    -3
390
F
347
21
348
0
1001
AcAecLayerStandard
1000

1000

1001
AcCmTransparency
1071
        0
  0
ENDTAB
  0
TABLE
  2
STYLE
  5
3
330
0
100
AcDbSymbolTable
 70
     2
  0
STYLE
  5
55
330
3
100
AcDbSymbolTableRecord
100
AcDbTextStyleTableRecord
  2
Standard
 70
     0
 40
0.0
 41
1.0
 50
0.0
 71
     0
 42
0.2
  3
txt
  4

  0
STYLE
  5
59
330
3
100
AcDbSymbolTableRecord
100
AcDbTextStyleTableRecord
  2
Annotative
 70
     0
 40
0.0
 41
1.0
 50
0.0
 71
     0
 42
0.2
  3
txt
  4

1001
AcadAnnotative
1000
AnnotativeData
1002
{
1070
     1
1070
     1
1002
}
  0
ENDTAB
  0
TABLE
  2
VIEW
  5
6
330
0
100
AcDbSymbolTable
 70
     1
  0
ENDTAB
  0
TABLE
  2
UCS
  5
7
330
0
100
AcDbSymbolTable
 70
     0
  0
ENDTAB
  0
TABLE
  2
APPID
  5
9
330
0
100
AcDbSymbolTable
 70
     9
  0
APPID
  5
56
330
9
100
AcDbSymbolTableRecord
100
AcDbRegAppTableRecord
  2
ACAD
 70
     0
  0
APPID
  5
5D
330
9
100
AcDbSymbolTableRecord
100
AcDbRegAppTableRecord
  2
AcadAnnotative
 70
     0
  0
APPID
  5
53B
330
9
100
AcDbSymbolTableRecord
100
AcDbRegAppTableRecord
  2
ACAD_DSTYLE_DIMJAG
 70
     0
  0
APPID
  5
53C
330
9
100
AcDbSymbolTableRecord
100
AcDbRegAppTableRecord
  2
ACAD_DSTYLE_DIMTALN
 70
     0
  0
APPID
  5
53D
330
9
100
AcDbSymbolTableRecord
100
AcDbRegAppTableRecord
  2
ACAD_NAV_VCDISPLAY
 70
     0
  0
APPID
  5
54E
330
9
100
AcDbSymbolTableRecord
100
AcDbRegAppTableRecord
  2
ACAD_EXEMPT_FROM_CAD_STANDARDS
 70
     0
  0
APPID
  5
555
330
9
100
AcDbSymbolTableRecord
100
AcDbRegAppTableRecord
  2
Acad_TC
 70
     0
  0
APPID
  5
5A7
330
9
100
AcDbSymbolTableRecord
100
AcDbRegAppTableRecord
  2
AcAecLayerStandard
 70
     0
  0
APPID
  5
5A8
330
9
100
AcDbSymbolTableRecord
100
AcDbRegAppTableRecord
  2
AcCmTransparency
 70
     0
  0
ENDTAB
  0
TABLE
  2
DIMSTYLE
  5
A
330
0
100
AcDbSymbolTable
 70
     3
100
AcDbDimStyleTable
 71
     1
340
57
  0
DIMSTYLE
105
57
330
A
100
AcDbSymbolTableRecord
100
AcDbDimStyleTableRecord
  2
Standard
 70
     0
340
55
  0
DIMSTYLE
105
58
330
A
100
AcDbSymbolTableRecord
100
AcDbDimStyleTableRecord
  2
Annotative
 70
     0
340
55
1001
AcadAnnotative
1000
AnnotativeData
1002
{
1070
     1
1070
     1
1002
}
  0
ENDTAB
  0
TABLE
  2
BLOCK_RECORD
  5
1
330
0
100
AcDbSymbolTable
 70
     1
  0
BLOCK_RECORD
  5
6F
102
{ACAD_XDICTIONARY
360
568
102
}
330
1
100
AcDbSymbolTableRecord
100
AcDbBlockTableRecord
  2
*Model_Space
340
72
 70
     0
280
     1
281
     0
  0
BLOCK_RECORD
  5
6B
330
1
100
AcDbSymbolTableRecord
100
AcDbBlockTableRecord
  2
*Paper_Space
340
6E
 70
     0
280
     1
281
     0
  0
ENDTAB
  0
ENDSEC
  0
SECTION
  2
BLOCKS
  0
BLOCK
  5
70
330
6F
100
AcDbEntity
  8
0
100
AcDbBlockBegin
  2
*Model_Space
 70
     0
 10
0.0
 20
0.0
 30
0.0
  3
*Model_Space
  1

  0
ENDBLK
  5
71
330
6F
100
AcDbEntity
  8
0
100
AcDbBlockEnd
  0
BLOCK
  5
6C
330
6B
100
AcDbEntity
 67
     1
  8
0
100
AcDbBlockBegin
  2
*Paper_Space
 70
     0
 10
0.0
 20
0.0
 30
0.0
  3
*Paper_Space
  1

  0
ENDBLK
  5
6D
330
6B
100
AcDbEntity
 67
     1
  8
0
100
AcDbBlockEnd
  0
ENDSEC
  0
SECTION
  2
ENTITIES
  0
LWPOLYLINE
  5
54A
330
6F
100
AcDbEntity
  8
defpoint
100
AcDbPolyline
 90
        4
 70
     1
 43
0.0
 10
578.2981803573475
 20
-11.79286732434184
 10
906.9106803573474
 20
-11.79286732434184
 10
906.9106803573474
 20
505.7321326756581
 10
578.2981803573475
 20
505.7321326756581
  0
LINE
  5
54B
330
6F
100
AcDbEntity
  8
defpoint
100
AcDbLine
 10
906.9106803573474
 20
505.7321326756581
 30
0.0
 11
967.2356803573475
 21
505.7321326756581
 31
0.0
  0
SPLINE
  5
563
330
6F
100
AcDbEntity
  8
defpoint
  6
Continuous
100
AcDbSpline
210
0.0
220
0.0
230
1.0
 70
  1064
 71
     3
 72
    11
 73
     7
 74
     5
 42
0.000000001
 43
0.0000000001
 44
0.0000000001
 40
0.0
 40
0.0
 40
0.0
 40
0.0
 40
18.13589633877209
 40
47.12594389342863
 40
88.4067860606982
 40
117.3503932008629
 40
117.3503932008629
 40
117.3503932008629
 40
117.3503932008629
 10
361.1757648589271
 20
814.7921272646181
 30
0.0
 10
355.1881369656998
 20
813.1268544927118
 30
0.0
 10
339.6293462183292
 20
808.7996599747139
 30
0.0
 10
324.0362334106634
 20
780.274749688727
 30
0.0
 10
322.3487728414945
 20
747.3284039691934
 30
0.0
 10
313.0198485827124
 20
725.6305481420229
 30
0.0
 10
309.1748526952479
 20
716.6875913650151
 30
0.0
 11
361.1757648589271
 21
814.7921272646181
 31
0.0
 11
344.2861330269689
 21
808.1852314283278
 31
0.0
 11
328.1101110261543
 21
784.1278174058189
 31
0.0
 11
319.3279893568615
 21
743.7919491366869
 31
0.0
 11
309.1748526952479
 21
716.6875913650151
 31
0.0
  0
LINE
  5
565
330
6F
100
AcDbEntity
  8
defpoint
  6
Continuous
100
AcDbLine
 10
309.1748526952478
 20
716.6875913650151
 30
0.0
 11
345.935342148614
 21
716.6875913650151
 31
0.0
  0
ARC
  5
566
330
6F
100
AcDbEntity
  8
defpoint
  6
Continuous
100
AcDbCircle
 10
397.3382648589271
 20
716.6875913650151
 30
0.0
 40
51.40292271031313
100
AcDbArc
 50
0.0
 51
180.0
  0
LINE
  5
567
330
6F
100
AcDbEntity
  8
defpoint
  6
Continuous
100
AcDbLine
 10
448.7411875692402
 20
716.6875913650151
 30
0.0
 11
485.5016770226064
 21
716.6875913650151
 31
0.0
  0
SPLINE
  5
575
330
6F
100
AcDbEntity
  8
defpoint
  6
Continuous
100
AcDbSpline
210
0.0
220
0.0
230
1.0
 70
     8
 71
     3
 72
    10
 73
     6
 74
     0
 42
0.000000001
 43
0.0000000001
 40
22.15368848488123
 40
22.15368848488123
 40
22.15368848488123
 40
22.15368848488123
 40
47.12594389342863
 40
88.4067860606982
 40
117.3503932008629
 40
117.3503932008629
 40
117.3503932008629
 40
117.3503932008629
 10
453.5007648589271
 20
830.9975382123898
 30
0.0
 10
454.7560681381228
 20
798.3113757737014
 30
0.0
 10
470.7086317423954
 20
778.9405538477812
 30
0.0
 10
472.3277568763598
 20
747.3284039691934
 30
0.0
 10
481.6566811351418
 20
725.6305481420229
 30
0.0
 10
485.5016770226064
 20
716.6875913650151
 30
0.0
  0
ARC
  5
57B
330
6F
100
AcDbEntity
  8
defpoint
  6
Continuous
100
AcDbCircle
 10
351.1757648589271
 20
1165.404627264618
 30
0.0
 40
10.0
100
AcDbArc
 50
90.0
 51
270.0
  0
LINE
  5
57C
330
6F
100
AcDbEntity
  8
defpoint
  6
Continuous
100
AcDbLine
 10
351.1757648589271
 20
1155.404627264618
 30
0.0
 11
361.1757648589271
 21
1155.404627264618
 31
0.0
  0
LWPOLYLINE
  5
587
330
6F
100
AcDbEntity
  8
defpoint
  6
Continuous
100
AcDbPolyline
 90
        2
 70
     0
 43
0.0
 10
351.1757648589271
 20
1175.404627264618
 10
386.1579249714282
 20
1175.404627264618
  0
LINE
  5
590
330
6F
100
AcDbEntity
  8
defpoint
100
AcDbLine
 10
433.5007648589271
 20
976.348377264618
 30
0.0
 11
428.5007648589271
 21
976.348377264618
 31
0.0
  0
LINE
  5
591
330
6F
100
AcDbEntity
  8
defpoint
100
AcDbLine
 10
428.5007648589271
 20
976.348377264618
 30
0.0
 11
428.5007648589271
 21
993.8483772646181
 31
0.0
  0
LINE
  5
592
330
6F
100
AcDbEntity
  8
defpoint
100
AcDbLine
 10
428.5007648589271
 20
993.8483772646181
 30
0.0
 11
433.5007648589271
 21
993.8483772646181
 31
0.0
  0
LINE
  5
593
330
6F
100
AcDbEntity
  8
defpoint
100
AcDbLine
 10
433.5007648589271
 20
886.8923084269509
 30
0.0
 11
428.5007648589271
 21
886.8923084269509
 31
0.0
  0
LINE
  5
594
330
6F
100
AcDbEntity
  8
defpoint
100
AcDbLine
 10
428.5007648589271
 20
886.8923084269509
 30
0.0
 11
428.5007648589271
 21
904.3923084269508
 31
0.0
  0
LINE
  5
595
330
6F
100
AcDbEntity
  8
defpoint
100
AcDbLine
 10
428.5007648589271
 20
904.3923084269508
 30
0.0
 11
433.5007648589271
 21
904.3923084269508
 31
0.0
  0
LINE
  5
596
330
6F
100
AcDbEntity
  8
defpoint
100
AcDbLine
 10
433.5007648589271
 20
1083.304446102285
 30
0.0
 11
428.5007648589271
 21
1083.304446102285
 31
0.0
  0
LINE
  5
597
330
6F
100
AcDbEntity
  8
defpoint
100
AcDbLine
 10
428.5007648589271
 20
1083.304446102285
 30
0.0
 11
428.5007648589271
 21
1065.804446102285
 31
0.0
  0
LINE
  5
598
330
6F
100
AcDbEntity
  8
defpoint
100
AcDbLine
 10
428.5007648589271
 20
1065.804446102285
 30
0.0
 11
433.5007648589271
 21
1065.804446102285
 31
0.0
  0
LWPOLYLINE
  5
59D
330
6F
100
AcDbEntity
  8
defpoint
100
AcDbPolyline
 90
        4
 70
     1
 43
0.0
 10
290.0076947178018
 20
825.0833926027473
 10
290.0076947178019
 20
1155.695892602747
 10
227.6826947178018
 20
1155.695892602747
 10
227.6826947178018
 20
825.0833926027473
  0
LWPOLYLINE
  5
59E
330
6F
100
AcDbEntity
  8
defpoint
100
AcDbPolyline
 90
        4
 70
     1
 43
0.0
 10
295.0076947178018
 20
820.0833926027474
 10
295.0076947178019
 20
1160.695892602747
 10
222.6826947178018
 20
1160.695892602747
 10
222.6826947178018
 20
820.0833926027474
  0
LINE
  5
59F
330
6F
100
AcDbEntity
  8
defpoint
100
AcDbLine
 10
433.5007648589271
 20
814.7921272646181
 30
0.0
 11
433.5007648589272
 21
886.8923084269509
 31
0.0
  0
LINE
  5
5A0
330
6F
100
AcDbEntity
  8
defpoint
100
AcDbLine
 10
433.5007648589272
 20
1155.404627264618
 30
0.0
 11
361.1757648589271
 21
1155.404627264618
 31
0.0
  0
LINE
  5
5A2
330
6F
100
AcDbEntity
  8
defpoint
100
AcDbLine
 10
361.1757648589271
 20
814.7921272646181
 30
0.0
 11
433.5007648589271
 21
814.7921272646181
 31
0.0
  0
LINE
  5
5A3
330
6F
100
AcDbEntity
  8
defpoint
100
AcDbLine
 10
433.5007648589271
 20
1083.304446102285
 30
0.0
 11
433.5007648589272
 21
1155.404627264618
 31
0.0
  0
LINE
  5
5A4
330
6F
100
AcDbEntity
  8
defpoint
100
AcDbLine
 10
433.5007648589271
 20
993.8483772646181
 30
0.0
 11
433.5007648589271
 21
1065.804446102285
 31
0.0
  0
LINE
  5
5A5
330
6F
100
AcDbEntity
  8
defpoint
100
AcDbLine
 10
433.5007648589272
 20
904.3923084269508
 30
0.0
 11
433.5007648589271
 21
976.3483772646182
 31
0.0
  0
LWPOLYLINE
  5
5B8
330
6F
100
AcDbEntity
  8
defpoint
  6
Continuous
100
AcDbPolyline
 90
        4
 70
     1
 43
0.0
 10
341.1757648589271
 20
798.9320529281854
 10
341.1757648589271
 20
1165.404627264618
 42
-0.9999999999999998
 10
361.1757648589271
 20
1165.404627264618
 10
361.1757648589271
 20
798.9320529281854
 42
-1.000000000000005
  0
CIRCLE
  5
614
330
6F
100
AcDbEntity
  8
defpoint
  6
Continuous
100
AcDbCircle
 10
351.1757648589271
 20
1165.404627264618
 30
0.0
 40
3.0
  0
CIRCLE
  5
615
330
6F
100
AcDbEntity
  8
defpoint
  6
Continuous
100
AcDbCircle
 10
351.175764858927
 20
798.9320529281853
 30
0.0
 40
3.0
  0
LINE
  5
616
330
6F
100
AcDbEntity
  8
0
100
AcDbLine
 10
-422.3730121427528
 20
137.265329327535
 30
0.0
 11
-422.3730121427527
 21
209.3655104898678
 31
0.0
  0
LINE
  5
617
330
6F
100
AcDbEntity
  8
0
100
AcDbLine
 10
-422.3730121427527
 20
226.8655104898678
 30
0.0
 11
-422.3730121427528
 21
298.8215793275351
 31
0.0
  0
LINE
  5
618
330
6F
100
AcDbEntity
  8
0
100
AcDbLine
 10
-422.3730121427528
 20
316.321579327535
 30
0.0
 11
-422.3730121427528
 21
388.2776481652022
 31
0.0
  0
LINE
  5
619
330
6F
100
AcDbEntity
  8
0
100
AcDbLine
 10
-422.3730121427528
 20
405.7776481652021
 30
0.0
 11
-422.3730121427527
 21
477.8778293275349
 31
0.0
  0
LINE
  5
61A
330
6F
100
AcDbEntity
  8
0
100
AcDbLine
 10
-422.3730121427527
 20
477.8778293275349
 30
0.0
 11
-494.6980121427528
 21
477.8778293275349
 31
0.0
  0
LINE
  5
61B
330
6F
100
AcDbEntity
  8
0
100
AcDbLine
 10
-494.6980121427528
 20
137.265329327535
 30
0.0
 11
-422.3730121427528
 21
137.265329327535
 31
0.0
  0
SPLINE
  5
61C
330
6F
100
AcDbEntity
  8
0
  6
Continuous
100
AcDbSpline
210
0.0
220
0.0
230
1.0
 70
  1064
 71
     3
 72
    11
 73
     7
 74
     5
 42
0.000000001
 43
0.0000000001
 44
0.0000000001
 40
0.0
 40
0.0
 40
0.0
 40
0.0
 40
18.13589633877209
 40
47.12594389342863
 40
88.4067860606982
 40
117.3503932008629
 40
117.3503932008629
 40
117.3503932008629
 40
117.3503932008629
 10
-494.6980121427528
 20
137.265329327535
 30
0.0
 10
-500.6856400359802
 20
135.6000565556287
 30
0.0
 10
-516.2444307833506
 20
131.2728620376308
 30
0.0
 10
-531.8375435910166
 20
102.7479517516438
 30
0.0
 10
-533.5250041601855
 20
69.80160603211047
 30
0.0
 10
-542.8539284189676
 20
48.10375020493984
 30
0.0
 10
-546.6989243064321
 20
39.16079342793205
 30
0.0
 11
-494.6980121427528
 21
137.265329327535
 31
0.0
 11
-511.587643974711
 21
130.6584334912447
 31
0.0
 11
-527.7636659755256
 21
106.6010194687358
 31
0.0
 11
-536.5457876448184
 21
66.26515119960391
 31
0.0
 11
-546.6989243064321
 21
39.16079342793205
 31
0.0
  0
LINE
  5
61D
330
6F
100
AcDbEntity
  8
0
  6
Continuous
100
AcDbLine
 10
-546.6989243064322
 20
39.16079342793205
 30
0.0
 11
-509.938434853066
 21
39.16079342793205
 31
0.0
  0
LINE
  5
61E
330
6F
100
AcDbEntity
  8
0
  6
Continuous
100
AcDbLine
 10
-407.1325894324397
 20
39.16079342793205
 30
0.0
 11
-370.3720999790736
 21
39.16079342793205
 31
0.0
  0
ARC
  5
61F
330
6F
100
AcDbEntity
  8
0
  6
Continuous
100
AcDbCircle
 10
-458.5355121427528
 20
39.16079342793205
 30
0.0
 40
51.40292271031313
100
AcDbArc
 50
0.0
 51
180.0
  0
SPLINE
  5
620
330
6F
100
AcDbEntity
  8
0
  6
Continuous
100
AcDbSpline
210
0.0
220
0.0
230
1.0
 70
     8
 71
     3
 72
    10
 73
     6
 74
     0
 42
0.000000001
 43
0.0000000001
 40
22.15368848488123
 40
22.15368848488123
 40
22.15368848488123
 40
22.15368848488123
 40
47.12594389342863
 40
88.4067860606982
 40
117.3503932008629
 40
117.3503932008629
 40
117.3503932008629
 40
117.3503932008629
 10
-402.3730121427528
 20
153.4707402753067
 30
0.0
 10
-401.1177088635571
 20
120.7845778366184
 30
0.0
 10
-385.1651452592846
 20
101.4137559106981
 30
0.0
 10
-383.5460201253202
 20
69.80160603211039
 30
0.0
 10
-374.2170958665381
 20
48.10375020493984
 30
0.0
 10
-370.3720999790736
 20
39.16079342793205
 30
0.0
  0
ARC
  5
621
330
6F
100
AcDbEntity
  8
0
  6
Continuous
100
AcDbCircle
 10
-504.6980121427528
 20
487.877829327535
 30
0.0
 40
10.0
100
AcDbArc
 50
90.0
 51
270.0
  0
LINE
  5
622
330
6F
100
AcDbEntity
  8
0
  6
Continuous
100
AcDbLine
 10
-504.6980121427528
 20
477.8778293275349
 30
0.0
 11
-494.6980121427528
 21
477.8778293275349
 31
0.0
  0
LWPOLYLINE
  5
623
330
6F
100
AcDbEntity
  8
0
100
AcDbPolyline
 90
        2
 70
     0
 43
0.0
 10
-504.6980121427528
 20
497.8778293275349
 10
-469.7158520302517
 20
497.8778293275349
  0
LINE
  5
624
330
6F
100
AcDbEntity
  8
0
100
AcDbLine
 10
-422.3730121427528
 20
298.821579327535
 30
0.0
 11
-427.3730121427528
 21
298.821579327535
 31
0.0
  0
LINE
  5
625
330
6F
100
AcDbEntity
  8
0
100
AcDbLine
 10
-427.3730121427528
 20
298.821579327535
 30
0.0
 11
-427.3730121427528
 21
316.321579327535
 31
0.0
  0
LINE
  5
626
330
6F
100
AcDbEntity
  8
0
100
AcDbLine
 10
-427.3730121427528
 20
316.321579327535
 30
0.0
 11
-422.3730121427528
 21
316.321579327535
 31
0.0
  0
LINE
  5
627
330
6F
100
AcDbEntity
  8
0
100
AcDbLine
 10
-422.3730121427528
 20
209.3655104898678
 30
0.0
 11
-427.3730121427528
 21
209.3655104898678
 31
0.0
  0
LINE
  5
628
330
6F
100
AcDbEntity
  8
0
100
AcDbLine
 10
-427.3730121427528
 20
209.3655104898678
 30
0.0
 11
-427.3730121427528
 21
226.8655104898678
 31
0.0
  0
LINE
  5
629
330
6F
100
AcDbEntity
  8
0
100
AcDbLine
 10
-427.3730121427528
 20
226.8655104898678
 30
0.0
 11
-422.3730121427528
 21
226.8655104898678
 31
0.0
  0
LINE
  5
62A
330
6F
100
AcDbEntity
  8
0
100
AcDbLine
 10
-422.3730121427528
 20
405.7776481652021
 30
0.0
 11
-427.3730121427528
 21
405.7776481652021
 31
0.0
  0
LINE
  5
62B
330
6F
100
AcDbEntity
  8
0
100
AcDbLine
 10
-427.3730121427528
 20
405.7776481652021
 30
0.0
 11
-427.3730121427528
 21
388.2776481652022
 31
0.0
  0
LINE
  5
62C
330
6F
100
AcDbEntity
  8
0
100
AcDbLine
 10
-427.3730121427528
 20
388.2776481652022
 30
0.0
 11
-422.3730121427528
 21
388.2776481652022
 31
0.0
  0
CIRCLE
  5
62E
330
6F
100
AcDbEntity
  8
0
  6
Continuous
100
AcDbCircle
 10
-504.6980121427528
 20
487.877829327535
 30
0.0
 40
3.0
  0
CIRCLE
  5
62F
330
6F
100
AcDbEntity
  8
0
  6
Continuous
100
AcDbCircle
 10
-504.6980121427529
 20
121.4052549911022
 30
0.0
 40
3.0
  0
LINE
  5
630
330
6F
100
AcDbEntity
  8
0
100
AcDbLine
 10
-684.0583847540012
 20
137.2676394120442
 30
0.0
 11
-684.0583847540012
 21
209.367820574377
 31
0.0
  0
LINE
  5
631
330
6F
100
AcDbEntity
  8
0
100
AcDbLine
 10
-684.0583847540012
 20
226.867820574377
 30
0.0
 11
-684.0583847540012
 21
298.8238894120443
 31
0.0
  0
LINE
  5
632
330
6F
100
AcDbEntity
  8
0
100
AcDbLine
 10
-684.0583847540012
 20
316.3238894120442
 30
0.0
 11
-684.0583847540012
 21
388.2799582497114
 31
0.0
  0
LINE
  5
633
330
6F
100
AcDbEntity
  8
0
100
AcDbLine
 10
-684.0583847540012
 20
405.7799582497113
 30
0.0
 11
-684.0583847540012
 21
477.8801394120441
 31
0.0
  0
LINE
  5
634
330
6F
100
AcDbEntity
  8
0
100
AcDbLine
 10
-684.0583847540012
 20
477.8801394120441
 30
0.0
 11
-611.7333847540012
 21
477.8801394120441
 31
0.0
  0
LINE
  5
635
330
6F
100
AcDbEntity
  8
0
100
AcDbLine
 10
-611.733384754001
 20
137.2676394120442
 30
0.0
 11
-684.0583847540012
 21
137.2676394120442
 31
0.0
  0
SPLINE
  5
636
330
6F
100
AcDbEntity
  8
0
  6
Continuous
100
AcDbSpline
210
0.0
220
0.0
230
1.0
 70
     8
 71
     3
 72
    10
 73
     6
 74
     0
 42
0.000000001
 43
0.0000000001
 40
41.58160428491493
 40
41.58160428491493
 40
41.58160428491493
 40
41.58160428491493
 40
47.12594389342863
 40
88.4067860606982
 40
117.3503932008629
 40
117.3503932008629
 40
117.3503932008629
 40
117.3503932008629
 10
-580.7228591776237
 20
111.9943096146104
 30
0.0
 10
-579.9642001942085
 20
110.2201079717587
 30
0.0
 10
-574.1950838826523
 20
94.96460123146801
 30
0.0
 10
-572.9063927365684
 20
69.80391611661957
 30
0.0
 10
-563.5774684777863
 20
48.10606028944903
 30
0.0
 10
-559.7324725903218
 20
39.16310351244124
 30
0.0
  0
LINE
  5
637
330
6F
100
AcDbEntity
  8
0
  6
Continuous
100
AcDbLine
 10
-559.7324725903217
 20
39.16310351244124
 30
0.0
 11
-596.4929620436881
 21
39.16310351244124
 31
0.0
  0
LINE
  5
638
330
6F
100
AcDbEntity
  8
0
  6
Continuous
100
AcDbLine
 10
-699.2988074643142
 20
39.16310351244124
 30
0.0
 11
-736.0592969176805
 21
39.16310351244124
 31
0.0
  0
ARC
  5
639
330
6F
100
AcDbEntity
  8
0
  6
Continuous
100
AcDbCircle
 10
-647.8958847540011
 20
39.16310351244124
 30
0.0
 40
51.40292271031313
100
AcDbArc
 50
0.0
 51
180.0
  0
SPLINE
  5
63A
330
6F
100
AcDbEntity
  8
0
  6
Continuous
100
AcDbSpline
210
0.0
220
0.0
230
1.0
 70
     8
 71
     3
 72
    10
 73
     6
 74
     0
 42
0.000000001
 43
0.0000000001
 40
22.15368848488123
 40
22.15368848488123
 40
22.15368848488123
 40
22.15368848488123
 40
47.12594389342863
 40
88.4067860606982
 40
117.3503932008629
 40
117.3503932008629
 40
117.3503932008629
 40
117.3503932008629
 10
-704.0583847540012
 20
153.4730503598159
 30
0.0
 10
-705.3136880331968
 20
120.7868879211275
 30
0.0
 10
-721.2662516374694
 20
101.4160659952073
 30
0.0
 10
-722.8853767714338
 20
69.80391611661957
 30
0.0
 10
-732.2143010302158
 20
48.10606028944903
 30
0.0
 10
-736.0592969176804
 20
39.16310351244124
 30
0.0
  0
LWPOLYLINE
  5
63D
330
6F
100
AcDbEntity
  8
0
100
AcDbPolyline
 90
        2
 70
     0
 43
0.0
 10
-611.7333847540012
 20
497.8801394120441
 10
-636.7155448665021
 20
497.8801394120441
  0
LINE
  5
63E
330
6F
100
AcDbEntity
  8
0
100
AcDbLine
 10
-684.0583847540012
 20
298.8238894120442
 30
0.0
 11
-679.0583847540012
 21
298.8238894120442
 31
0.0
  0
LINE
  5
63F
330
6F
100
AcDbEntity
  8
0
100
AcDbLine
 10
-679.0583847540012
 20
298.8238894120442
 30
0.0
 11
-679.0583847540012
 21
316.3238894120442
 31
0.0
  0
LINE
  5
640
330
6F
100
AcDbEntity
  8
0
100
AcDbLine
 10
-679.0583847540012
 20
316.3238894120442
 30
0.0
 11
-684.0583847540012
 21
316.3238894120442
 31
0.0
  0
LINE
  5
641
330
6F
100
AcDbEntity
  8
0
100
AcDbLine
 10
-684.0583847540012
 20
209.367820574377
 30
0.0
 11
-679.0583847540012
 21
209.367820574377
 31
0.0
  0
LINE
  5
642
330
6F
100
AcDbEntity
  8
0
100
AcDbLine
 10
-679.0583847540012
 20
209.367820574377
 30
0.0
 11
-679.0583847540012
 21
226.867820574377
 31
0.0
  0
LINE
  5
643
330
6F
100
AcDbEntity
  8
0
100
AcDbLine
 10
-679.0583847540012
 20
226.867820574377
 30
0.0
 11
-684.0583847540012
 21
226.867820574377
 31
0.0
  0
LINE
  5
644
330
6F
100
AcDbEntity
  8
0
100
AcDbLine
 10
-684.0583847540012
 20
405.7799582497113
 30
0.0
 11
-679.0583847540012
 21
405.7799582497113
 31
0.0
  0
LINE
  5
645
330
6F
100
AcDbEntity
  8
0
100
AcDbLine
 10
-679.0583847540012
 20
405.7799582497113
 30
0.0
 11
-679.0583847540012
 21
388.2799582497114
 31
0.0
  0
LINE
  5
646
330
6F
100
AcDbEntity
  8
0
100
AcDbLine
 10
-679.0583847540012
 20
388.2799582497114
 30
0.0
 11
-684.0583847540012
 21
388.2799582497114
 31
0.0
  0
ARC
  5
64B
330
6F
100
AcDbEntity
  8
0
  6
Continuous
100
AcDbCircle
 10
-601.7333847540011
 20
487.8801394120442
 30
0.0
 40
376.4725743364328
100
AcDbArc
 50
270.0
 51
273.1992774707846
  0
LINE
  5
64C
330
6F
100
AcDbEntity
  8
0
  6
Continuous
100
AcDbLine
 10
-611.7333847540012
 20
477.8801394120441
 30
0.0
 11
-611.7333847540012
 21
497.8801394120441
 31
0.0
  0
LWPOLYLINE
  5
657
330
6F
100
AcDbEntity
  8
0
  6
Continuous
100
AcDbPolyline
 90
        3
 70
     0
 43
0.0
 10
-611.733384754001
 20
137.2676394120442
 10
-611.733384754001
 20
121.4075650756116
 42
0.4142135623731017
 10
-601.7333847540011
 20
111.4075650756114
 42
0.4142135623731017
  0
LWPOLYLINE
  5
658
330
6F
100
AcDbEntity
  8
0
  6
Continuous
100
AcDbPolyline
 90
       16
 70
     1
 43
0.0
 10
-1008.828286717894
 20
685.3251849163889
 10
-936.8722178802265
 20
685.3251849163889
 10
-936.8722178802265
 20
690.3251849163889
 10
-919.3722178802266
 20
690.3251849163889
 10
-919.3722178802266
 20
685.3251849163889
 10
-831.4119623814612
 20
685.3251849163889
 42
-1.000000000000005
 10
-831.411962381461
 20
665.3251849163889
 10
-1197.884536717894
 20
665.3251849163889
 42
-0.9999999999999998
 10
-1197.884536717894
 20
685.3251849163889
 10
-1115.784355555561
 20
685.3251849163889
 10
-1115.784355555561
 20
690.3251849163889
 10
-1098.284355555561
 20
690.3251849163889
 10
-1098.284355555561
 20
685.3251849163889
 10
-1026.328286717894
 20
685.3251849163889
 10
-1026.328286717894
 20
690.3251849163889
 10
-1008.828286717894
 20
690.3251849163889
  0
CIRCLE
  5
659
330
6F
100
AcDbEntity
  8
0
  6
Continuous
100
AcDbCircle
 10
-1197.884536717894
 20
675.3251849163889
 30
0.0
 40
3.0
  0
CIRCLE
  5
65A
330
6F
100
AcDbEntity
  8
0
  6
Continuous
100
AcDbCircle
 10
-831.411962381461
 20
675.3251849163888
 30
0.0
 40
3.0
  0
LWPOLYLINE
  5
65C
330
6F
100
AcDbEntity
  8
defpoint
  6
Continuous
100
AcDbPolyline
 90
        4
 70
     1
 43
0.0
 10
361.1757648589271
 20
814.7921272646181
 10
341.1757648589271
 20
814.7921272646181
 10
341.1757648589271
 20
1155.404627264618
 10
361.1757648589271
 20
1155.404627264618
  0
LWPOLYLINE
  5
6AE
330
6F
100
AcDbEntity
  8
0
  6
Continuous
100
AcDbPolyline
 90
       36
 70
     1
 43
0.0
 10
-1197.335865281892
 20
126.6585429953802
 10
-1202.335865281892
 20
126.6585429953802
 10
-1202.335865281892
 20
109.1585429953802
 10
-1197.335865281892
 20
109.1585429953802
 10
-1197.335865281892
 20
91.65854299538024
 10
-1202.335865281892
 20
91.65854299538024
 10
-1202.335865281892
 20
74.15854299538023
 10
-1197.335865281892
 20
74.15854299538023
 10
-1197.335865281892
 20
56.65854299538023
 10
-1202.335865281892
 20
56.65854299538023
 10
-1202.335865281892
 20
39.15854299538023
 10
-1197.335865281892
 20
39.15854299538023
 10
-1197.335865281892
 20
21.65854299538023
 10
-1202.335865281892
 20
21.65854299538023
 10
-1202.335865281892
 20
5.40854299538023
 10
-861.7258652818918
 20
5.40854299538023
 10
-861.7258652818918
 20
21.65854299538023
 10
-866.7258652818919
 20
21.65854299538023
 10
-866.7258652818919
 20
39.15854299538023
 10
-861.7258652818918
 20
39.15854299538023
 10
-861.7258652818918
 20
56.65854299538023
 10
-866.7258652818919
 20
56.65854299538023
 10
-866.7258652818919
 20
74.15854299538023
 10
-861.7258652818918
 20
74.15854299538023
 10
-861.7258652818918
 20
91.65854299538024
 10
-866.7258652818919
 20
91.65854299538024
 10
-866.7258652818919
 20
109.1585429953802
 10
-861.7258652818918
 20
109.1585429953802
 10
-861.7258652818918
 20
126.6585429953802
 10
-866.7258652818919
 20
126.6585429953802
 10
-866.7258652818919
 20
144.1585429953802
 10
-861.7258652818918
 20
144.1585429953802
 10
-861.7258652818918
 20
160.4085429953802
 10
-1202.335865281892
 20
160.4085429953802
 10
-1202.335865281892
 20
144.1585429953802
 10
-1197.335865281892
 20
144.1585429953802
  0
LINE
  5
6B2
330
6F
100
AcDbEntity
  8
0
100
AcDbLine
 10
-1130.236934119559
 20
145.4085429953802
 30
0.0
 11
-1130.236934119559
 21
140.4085429953802
 31
0.0
  0
LINE
  5
6B3
330
6F
100
AcDbEntity
  8
0
100
AcDbLine
 10
-1130.236934119559
 20
140.4085429953802
 30
0.0
 11
-1112.736934119559
 21
140.4085429953802
 31
0.0
  0
LINE
  5
6B4
330
6F
100
AcDbEntity
  8
0
100
AcDbLine
 10
-1112.736934119559
 20
140.4085429953802
 30
0.0
 11
-1112.736934119559
 21
145.4085429953802
 31
0.0
  0
LINE
  5
6B5
330
6F
100
AcDbEntity
  8
0
100
AcDbLine
 10
-1130.236934119559
 20
145.4085429953802
 30
0.0
 11
-1130.236934119559
 21
150.4085429953802
 31
0.0
  0
LINE
  5
6B6
330
6F
100
AcDbEntity
  8
0
100
AcDbLine
 10
-1130.236934119559
 20
150.4085429953802
 30
0.0
 11
-1112.736934119559
 21
150.4085429953802
 31
0.0
  0
LINE
  5
6B7
330
6F
100
AcDbEntity
  8
0
100
AcDbLine
 10
-1112.736934119559
 20
150.4085429953802
 30
0.0
 11
-1112.736934119559
 21
145.4085429953802
 31
0.0
  0
LINE
  5
6B8
330
6F
100
AcDbEntity
  8
0
100
AcDbLine
 10
-933.8247964442246
 20
145.4085429953802
 30
0.0
 11
-933.8247964442246
 21
140.4085429953802
 31
0.0
  0
LINE
  5
6B9
330
6F
100
AcDbEntity
  8
0
100
AcDbLine
 10
-933.8247964442246
 20
140.4085429953802
 30
0.0
 11
-951.3247964442246
 21
140.4085429953802
 31
0.0
  0
LINE
  5
6BA
330
6F
100
AcDbEntity
  8
0
100
AcDbLine
 10
-951.3247964442246
 20
140.4085429953802
 30
0.0
 11
-951.3247964442246
 21
145.4085429953802
 31
0.0
  0
LINE
  5
6BB
330
6F
100
AcDbEntity
  8
0
100
AcDbLine
 10
-933.8247964442246
 20
145.4085429953802
 30
0.0
 11
-933.8247964442246
 21
150.4085429953802
 31
0.0
  0
LINE
  5
6BC
330
6F
100
AcDbEntity
  8
0
100
AcDbLine
 10
-933.8247964442246
 20
150.4085429953802
 30
0.0
 11
-951.3247964442246
 21
150.4085429953802
 31
0.0
  0
LINE
  5
6BD
330
6F
100
AcDbEntity
  8
0
100
AcDbLine
 10
-951.3247964442246
 20
150.4085429953802
 30
0.0
 11
-951.3247964442246
 21
145.4085429953802
 31
0.0
  0
LINE
  5
6BE
330
6F
100
AcDbEntity
  8
0
100
AcDbLine
 10
-1023.280865281892
 20
145.4085429953802
 30
0.0
 11
-1023.280865281892
 21
140.4085429953802
 31
0.0
  0
LINE
  5
6BF
330
6F
100
AcDbEntity
  8
0
100
AcDbLine
 10
-1023.280865281892
 20
140.4085429953802
 30
0.0
 11
-1040.780865281891
 21
140.4085429953802
 31
0.0
  0
LINE
  5
6C0
330
6F
100
AcDbEntity
  8
0
100
AcDbLine
 10
-1040.780865281891
 20
140.4085429953802
 30
0.0
 11
-1040.780865281891
 21
145.4085429953802
 31
0.0
  0
LINE
  5
6C1
330
6F
100
AcDbEntity
  8
0
100
AcDbLine
 10
-1023.280865281892
 20
145.4085429953802
 30
0.0
 11
-1023.280865281892
 21
150.4085429953802
 31
0.0
  0
LINE
  5
6C2
330
6F
100
AcDbEntity
  8
0
100
AcDbLine
 10
-1023.280865281892
 20
150.4085429953802
 30
0.0
 11
-1040.780865281891
 21
150.4085429953802
 31
0.0
  0
LINE
  5
6C3
330
6F
100
AcDbEntity
  8
0
100
AcDbLine
 10
-1040.780865281891
 20
150.4085429953802
 30
0.0
 11
-1040.780865281891
 21
145.4085429953802
 31
0.0
  0
LINE
  5
6C6
330
6F
100
AcDbEntity
  8
0
100
AcDbLine
 10
-1130.236934119559
 20
20.40854299538023
 30
0.0
 11
-1130.236934119559
 21
25.40854299538023
 31
0.0
  0
LINE
  5
6C7
330
6F
100
AcDbEntity
  8
0
100
AcDbLine
 10
-1130.236934119559
 20
25.40854299538023
 30
0.0
 11
-1112.736934119559
 21
25.40854299538023
 31
0.0
  0
LINE
  5
6C8
330
6F
100
AcDbEntity
  8
0
100
AcDbLine
 10
-1112.736934119559
 20
25.40854299538023
 30
0.0
 11
-1112.736934119559
 21
20.40854299538023
 31
0.0
  0
LINE
  5
6C9
330
6F
100
AcDbEntity
  8
0
100
AcDbLine
 10
-1130.236934119559
 20
20.40854299538023
 30
0.0
 11
-1130.236934119559
 21
15.40854299538023
 31
0.0
  0
LINE
  5
6CA
330
6F
100
AcDbEntity
  8
0
100
AcDbLine
 10
-1130.236934119559
 20
15.40854299538023
 30
0.0
 11
-1112.736934119559
 21
15.40854299538023
 31
0.0
  0
LINE
  5
6CB
330
6F
100
AcDbEntity
  8
0
100
AcDbLine
 10
-1112.736934119559
 20
15.40854299538023
 30
0.0
 11
-1112.736934119559
 21
20.40854299538023
 31
0.0
  0
LINE
  5
6CC
330
6F
100
AcDbEntity
  8
0
100
AcDbLine
 10
-933.8247964442246
 20
20.40854299538023
 30
0.0
 11
-933.8247964442246
 21
25.40854299538023
 31
0.0
  0
LINE
  5
6CD
330
6F
100
AcDbEntity
  8
0
100
AcDbLine
 10
-933.8247964442246
 20
25.40854299538023
 30
0.0
 11
-951.3247964442246
 21
25.40854299538023
 31
0.0
  0
LINE
  5
6CE
330
6F
100
AcDbEntity
  8
0
100
AcDbLine
 10
-951.3247964442246
 20
25.40854299538023
 30
0.0
 11
-951.3247964442246
 21
20.40854299538023
 31
0.0
  0
LINE
  5
6CF
330
6F
100
AcDbEntity
  8
0
100
AcDbLine
 10
-933.8247964442246
 20
20.40854299538023
 30
0.0
 11
-933.8247964442246
 21
15.40854299538023
 31
0.0
  0
LINE
  5
6D0
330
6F
100
AcDbEntity
  8
0
100
AcDbLine
 10
-933.8247964442246
 20
15.40854299538023
 30
0.0
 11
-951.3247964442246
 21
15.40854299538023
 31
0.0
  0
LINE
  5
6D1
330
6F
100
AcDbEntity
  8
0
100
AcDbLine
 10
-951.3247964442246
 20
15.40854299538023
 30
0.0
 11
-951.3247964442246
 21
20.40854299538023
 31
0.0
  0
LINE
  5
6D2
330
6F
100
AcDbEntity
  8
0
100
AcDbLine
 10
-1023.280865281892
 20
20.40854299538023
 30
0.0
 11
-1023.280865281892
 21
25.40854299538023
 31
0.0
  0
LINE
  5
6D3
330
6F
100
AcDbEntity
  8
0
100
AcDbLine
 10
-1023.280865281892
 20
25.40854299538023
 30
0.0
 11
-1040.780865281891
 21
25.40854299538023
 31
0.0
  0
LINE
  5
6D4
330
6F
100
AcDbEntity
  8
0
100
AcDbLine
 10
-1040.780865281891
 20
25.40854299538023
 30
0.0
 11
-1040.780865281891
 21
20.40854299538023
 31
0.0
  0
LINE
  5
6D5
330
6F
100
AcDbEntity
  8
0
100
AcDbLine
 10
-1023.280865281892
 20
20.40854299538023
 30
0.0
 11
-1023.280865281892
 21
15.40854299538023
 31
0.0
  0
LINE
  5
6D6
330
6F
100
AcDbEntity
  8
0
100
AcDbLine
 10
-1023.280865281892
 20
15.40854299538023
 30
0.0
 11
-1040.780865281891
 21
15.40854299538023
 31
0.0
  0
LINE
  5
6D7
330
6F
100
AcDbEntity
  8
0
100
AcDbLine
 10
-1040.780865281891
 20
15.40854299538023
 30
0.0
 11
-1040.780865281891
 21
20.40854299538023
 31
0.0
  0
LWPOLYLINE
  5
6FC
330
6F
100
AcDbEntity
  8
0
  6
Continuous
100
AcDbPolyline
 90
       36
 70
     1
 43
0.0
 10
-525.2677449507382
 20
-181.7571943879661
 10
-525.2677449507382
 20
-186.7571943879661
 10
-542.7677449507382
 20
-186.7571943879661
 10
-542.7677449507382
 20
-181.7571943879661
 10
-560.2677449507382
 20
-181.7571943879661
 10
-560.2677449507382
 20
-186.7571943879661
 10
-577.7677449507382
 20
-186.7571943879661
 10
-577.7677449507382
 20
-181.7571943879661
 10
-595.2677449507382
 20
-181.7571943879661
 10
-595.2677449507382
 20
-186.7571943879661
 10
-612.7677449507382
 20
-186.7571943879661
 10
-612.7677449507382
 20
-181.7571943879661
 10
-630.2677449507382
 20
-181.7571943879661
 10
-630.2677449507382
 20
-186.7571943879661
 10
-646.5177449507382
 20
-186.7571943879661
 10
-646.5177449507382
 20
-249.0771943879663
 10
-630.2677449507382
 20
-249.0771943879663
 10
-630.2677449507382
 20
-254.0771943879663
 10
-612.7677449507382
 20
-254.0771943879663
 10
-612.7677449507382
 20
-249.0771943879663
 10
-595.2677449507382
 20
-249.0771943879663
 10
-595.2677449507382
 20
-254.0771943879663
 10
-577.7677449507382
 20
-254.0771943879663
 10
-577.7677449507382
 20
-249.0771943879663
 10
-560.2677449507382
 20
-249.0771943879663
 10
-560.2677449507382
 20
-254.0771943879663
 10
-542.7677449507382
 20
-254.0771943879663
 10
-542.7677449507382
 20
-249.0771943879663
 10
-525.2677449507382
 20
-249.0771943879663
 10
-525.2677449507382
 20
-254.0771943879663
 10
-507.7677449507382
 20
-254.0771943879663
 10
-507.7677449507382
 20
-249.0771943879663
 10
-491.5177449507382
 20
-249.0771943879663
 10
-491.5177449507382
 20
-186.7571943879661
 10
-507.7677449507382
 20
-186.7571943879661
 10
-507.7677449507382
 20
-181.7571943879661
  0
LWPOLYLINE
  5
6FD
330
6F
100
AcDbEntity
  8
0
100
AcDbPolyline
 90
        6
 70
     1
 43
0.0
 10
-1023.058341451072
 20
-241.2192861263356
 10
-1023.058341451072
 20
-246.2192861263357
 10
-1040.558341451072
 20
-246.2192861263357
 10
-1040.558341451072
 20
-241.2192861263356
 10
-1040.558341451072
 20
-236.2192861263356
 10
-1023.058341451072
 20
-236.2192861263356
  0
LWPOLYLINE
  5
6FE
330
6F
100
AcDbEntity
  8
0
100
AcDbPolyline
 90
        6
 70
     1
 43
0.0
 10
-933.602272613405
 20
-241.2192861263356
 10
-933.602272613405
 20
-246.2192861263357
 10
-951.1022726134051
 20
-246.2192861263357
 10
-951.1022726134051
 20
-241.2192861263356
 10
-951.1022726134051
 20
-236.2192861263356
 10
-933.602272613405
 20
-236.2192861263356
  0
LWPOLYLINE
  5
6FF
330
6F
100
AcDbEntity
  8
0
100
AcDbPolyline
 90
        6
 70
     1
 43
0.0
 10
-1130.014410288739
 20
-241.2192861263356
 10
-1130.014410288739
 20
-246.2192861263357
 10
-1112.514410288739
 20
-246.2192861263357
 10
-1112.514410288739
 20
-241.2192861263356
 10
-1112.514410288739
 20
-236.2192861263356
 10
-1130.014410288739
 20
-236.2192861263356
  0
LWPOLYLINE
  5
700
330
6F
100
AcDbEntity
  8
0
100
AcDbPolyline
 90
        6
 70
     1
 43
0.0
 10
-1023.058341451072
 20
-116.2192861263356
 10
-1023.058341451072
 20
-111.2192861263356
 10
-1040.558341451072
 20
-111.2192861263356
 10
-1040.558341451072
 20
-116.2192861263356
 10
-1040.558341451072
 20
-121.2192861263356
 10
-1023.058341451072
 20
-121.2192861263356
  0
LWPOLYLINE
  5
701
330
6F
100
AcDbEntity
  8
0
100
AcDbPolyline
 90
        6
 70
     1
 43
0.0
 10
-933.6022726134048
 20
-116.2192861263356
 10
-933.6022726134048
 20
-111.2192861263356
 10
-951.1022726134049
 20
-111.2192861263356
 10
-951.1022726134049
 20
-116.2192861263356
 10
-951.1022726134049
 20
-121.2192861263356
 10
-933.6022726134048
 20
-121.2192861263356
  0
LWPOLYLINE
  5
702
330
6F
100
AcDbEntity
  8
0
100
AcDbPolyline
 90
        6
 70
     1
 43
0.0
 10
-1130.014410288739
 20
-116.2192861263356
 10
-1130.014410288739
 20
-111.2192861263356
 10
-1112.514410288739
 20
-111.2192861263356
 10
-1112.514410288739
 20
-116.2192861263356
 10
-1112.514410288739
 20
-121.2192861263356
 10
-1130.014410288739
 20
-121.2192861263356
  0
LWPOLYLINE
  5
703
330
6F
100
AcDbEntity
  8
0
  6
Continuous
100
AcDbPolyline
 90
       36
 70
     1
 43
0.0
 10
-1197.113341451072
 20
-134.9692861263356
 10
-1202.113341451072
 20
-134.9692861263356
 10
-1202.113341451072
 20
-152.4692861263356
 10
-1197.113341451072
 20
-152.4692861263356
 10
-1197.113341451072
 20
-169.9692861263356
 10
-1202.113341451072
 20
-169.9692861263356
 10
-1202.113341451072
 20
-187.4692861263356
 10
-1197.113341451072
 20
-187.4692861263356
 10
-1197.113341451072
 20
-204.9692861263356
 10
-1202.113341451072
 20
-204.9692861263356
 10
-1202.113341451072
 20
-222.4692861263356
 10
-1197.113341451072
 20
-222.4692861263356
 10
-1197.113341451072
 20
-239.9692861263357
 10
-1202.113341451072
 20
-239.9692861263357
 10
-1202.113341451072
 20
-256.2192861263357
 10
-861.5033414510723
 20
-256.2192861263357
 10
-861.5033414510723
 20
-239.9692861263357
 10
-866.5033414510723
 20
-239.9692861263357
 10
-866.5033414510721
 20
-222.4692861263356
 10
-861.5033414510721
 20
-222.4692861263356
 10
-861.5033414510721
 20
-204.9692861263356
 10
-866.5033414510721
 20
-204.9692861263356
 10
-866.5033414510721
 20
-187.4692861263356
 10
-861.5033414510721
 20
-187.4692861263356
 10
-861.5033414510721
 20
-169.9692861263356
 10
-866.5033414510721
 20
-169.9692861263356
 10
-866.5033414510721
 20
-152.4692861263356
 10
-861.5033414510721
 20
-152.4692861263356
 10
-861.5033414510721
 20
-134.9692861263356
 10
-866.5033414510721
 20
-134.9692861263356
 10
-866.5033414510721
 20
-117.4692861263356
 10
-861.5033414510721
 20
-117.4692861263356
 10
-861.5033414510721
 20
-101.2192861263356
 10
-1202.113341451072
 20
-101.2192861263356
 10
-1202.113341451072
 20
-117.4692861263356
 10
-1197.113341451072
 20
-117.4692861263356
  0
LWPOLYLINE
  5
704
330
6F
100
AcDbEntity
  8
0
100
AcDbPolyline
 90
       36
 70
     1
 43
0.0
 10
-712.7313749640948
 20
-243.8054688774569
 10
-707.7313749640948
 20
-243.8054688774569
 10
-707.7313749640948
 20
-226.3054688774569
 10
-712.7313749640948
 20
-226.3054688774569
 10
-712.7313749640948
 20
-208.8054688774569
 10
-707.7313749640948
 20
-208.8054688774569
 10
-707.7313749640948
 20
-191.3054688774568
 10
-712.7313749640948
 20
-191.3054688774568
 10
-712.7313749640948
 20
-173.8054688774568
 10
-707.7313749640948
 20
-173.8054688774568
 10
-707.7313749640948
 20
-156.3054688774568
 10
-712.7313749640948
 20
-156.3054688774568
 10
-712.7313749640948
 20
-138.8054688774568
 10
-707.7313749640948
 20
-138.8054688774568
 10
-707.7313749640948
 20
-121.3054688774568
 10
-712.7313749640948
 20
-121.3054688774568
 10
-712.7313749640948
 20
-105.0554688774568
 10
-775.0513749640949
 20
-105.0554688774568
 10
-775.0513749640949
 20
-121.3054688774568
 10
-780.0513749640949
 20
-121.3054688774568
 10
-780.0513749640949
 20
-138.8054688774568
 10
-775.0513749640949
 20
-138.8054688774568
 10
-775.0513749640949
 20
-156.3054688774568
 10
-780.0513749640949
 20
-156.3054688774568
 10
-780.0513749640949
 20
-173.8054688774568
 10
-775.0513749640949
 20
-173.8054688774568
 10
-775.0513749640949
 20
-191.3054688774568
 10
-780.0513749640949
 20
-191.3054688774568
 10
-780.0513749640949
 20
-208.8054688774569
 10
-775.0513749640949
 20
-208.8054688774569
 10
-775.0513749640949
 20
-226.3054688774569
 10
-780.0513749640949
 20
-226.3054688774569
 10
-780.0513749640949
 20
-243.8054688774569
 10
-775.0513749640949
 20
-243.8054688774569
 10
-775.0513749640949
 20
-260.0554688774569
 10
-712.7313749640948
 20
-260.0554688774569
  0
CIRCLE
  5
710
330
6F
100
AcDbEntity
  8
defpoint
  6
Continuous
100
AcDbCircle
 10
397.3382648589271
 20
791.4413206699731
 30
0.0
 40
4.0
  0
ARC
  5
712
330
6F
100
AcDbEntity
  8
defpoint
  6
Continuous
100
AcDbCircle
 10
397.3382648589271
 20
1165.404627264618
 30
0.0
 40
15.0
100
AcDbArc
 50
41.81031489577853
 51
138.1896851042214
  0
CIRCLE
  5
713
330
6F
100
AcDbEntity
  8
defpoint
  6
Continuous
100
AcDbCircle
 10
397.3382648589271
 20
1165.404627264618
 30
0.0
 40
4.0
  0
LWPOLYLINE
  5
714
330
6F
100
AcDbEntity
  8
defpoint
  6
Continuous
100
AcDbPolyline
 90
        4
 70
     0
 43
0.0
 10
408.5186047464261
 20
1175.404627264618
 10
443.5007648589271
 20
1175.404627264618
 42
-0.4142135623730951
 10
453.5007648589271
 20
1165.404627264618
 10
453.5007648589271
 20
830.9975382123898
  0
CIRCLE
  5
715
330
6F
100
AcDbEntity
  8
0
100
AcDbCircle
 10
-458.5355121427528
 20
113.9145227328901
 30
0.0
 40
4.0
  0
ARC
  5
716
330
6F
100
AcDbEntity
  8
0
100
AcDbCircle
 10
-458.5355121427528
 20
487.877829327535
 30
0.0
 40
15.0
100
AcDbArc
 50
41.81031489577695
 51
138.189685104223
  0
CIRCLE
  5
717
330
6F
100
AcDbEntity
  8
0
100
AcDbCircle
 10
-458.5355121427528
 20
487.877829327535
 30
0.0
 40
4.0
  0
CIRCLE
  5
718
330
6F
100
AcDbEntity
  8
0
100
AcDbCircle
 10
-647.8958847540011
 20
113.9168328173992
 30
0.0
 40
4.0
  0
ARC
  5
719
330
6F
100
AcDbEntity
  8
0
100
AcDbCircle
 10
-647.8958847540011
 20
487.8801394120442
 30
0.0
 40
15.0
100
AcDbArc
 50
41.81031489577503
 51
138.1896851042249
  0
CIRCLE
  5
71A
330
6F
100
AcDbEntity
  8
0
100
AcDbCircle
 10
-647.8958847540011
 20
487.8801394120442
 30
0.0
 40
4.0
  0
LWPOLYLINE
  5
721
330
6F
100
AcDbEntity
  8
0
100
AcDbPolyline
 90
        4
 70
     0
 43
0.0
 10
-659.0762246415001
 20
497.8801394120441
 10
-694.0583847540011
 20
497.8801394120441
 42
0.4142135623730951
 10
-704.0583847540012
 20
487.8801394120442
 10
-704.0583847540012
 20
153.4730503598159
  0
LWPOLYLINE
  5
722
330
6F
100
AcDbEntity
  8
0
100
AcDbPolyline
 90
        4
 70
     0
 43
0.0
 10
-447.3551722552539
 20
497.8778293275349
 10
-412.3730121427528
 20
497.8778293275349
 42
-0.4142135623730951
 10
-402.3730121427528
 20
487.877829327535
 10
-402.3730121427528
 20
153.4707402753067
  0
LWPOLYLINE
  5
723
330
6F
100
AcDbEntity
  8
0
  6
Continuous
100
AcDbPolyline
 90
       16
 70
     1
 43
0.0
 10
-1004.386467772531
 20
614.2475386152701
 10
-932.4303989348639
 20
614.2475386152701
 10
-932.4303989348639
 20
619.24753861527
 10
-914.9303989348638
 20
619.24753861527
 10
-914.9303989348638
 20
614.2475386152701
 10
-826.9701434360985
 20
614.2475386152701
 42
-1.000000000000005
 10
-826.9701434360984
 20
594.24753861527
 10
-1193.442717772531
 20
594.24753861527
 42
-0.9999999999999998
 10
-1193.442717772531
 20
614.2475386152701
 10
-1111.342536610198
 20
614.2475386152701
 10
-1111.342536610198
 20
619.24753861527
 10
-1093.842536610198
 20
619.24753861527
 10
-1093.842536610198
 20
614.2475386152701
 10
-1021.886467772531
 20
614.2475386152701
 10
-1021.886467772531
 20
619.24753861527
 10
-1004.386467772531
 20
619.24753861527
  0
CIRCLE
  5
724
330
6F
100
AcDbEntity
  8
0
  6
Continuous
100
AcDbCircle
 10
-1193.442717772531
 20
604.24753861527
 30
0.0
 40
3.0
  0
CIRCLE
  5
725
330
6F
100
AcDbEntity
  8
0
  6
Continuous
100
AcDbCircle
 10
-826.9701434360982
 20
604.2475386152699
 30
0.0
 40
3.0
  0
SPLINE
  5
75D
330
6F
100
AcDbEntity
  8
0
  6
Continuous
100
AcDbSpline
210
0.0
220
0.0
230
1.0
 70
    13
 71
     3
 72
    62
 73
    58
 74
     0
 42
0.000000001
 43
0.0000000001
 40
0.0
 40
0.0
 40
0.0
 40
0.0
 40
0.2131404000115374
 40
0.2131404000115374
 40
0.2131404000115374
 40
14.15848429604
 40
14.15848429604
 40
14.15848429604
 40
15.15848429604
 40
15.15848429604
 40
15.15848429604
 40
16.15848429604
 40
16.15848429604
 40
16.15848429604
 40
17.15848429604
 40
17.15848429604
 40
17.15848429604
 40
18.03034208992806
 40
18.03034208992806
 40
18.03034208992806
 40
19.03034208992806
 40
19.03034208992806
 40
19.03034208992806
 40
20.03034208992807
 40
20.03034208992807
 40
20.03034208992807
 40
21.03034208992807
 40
21.03034208992807
 40
21.03034208992807
 40
22.03034208992807
 40
22.03034208992807
 40
22.03034208992807
 40
23.03034208992807
 40
23.03034208992807
 40
23.03034208992807
 40
24.03034208992807
 40
24.03034208992807
 40
24.03034208992807
 40
25.03034208992807
 40
25.03034208992807
 40
25.03034208992807
 40
26.03034208992807
 40
26.03034208992807
 40
26.03034208992807
 40
27.03034208992807
 40
27.03034208992807
 40
27.03034208992807
 40
28.03034208992807
 40
28.03034208992807
 40
28.03034208992807
 40
29.03034208992807
 40
29.03034208992807
 40
29.03034208992807
 40
30.03034208992807
 40
30.03034208992807
 40
30.03034208992807
 40
31.03034208992807
 40
31.03034208992807
 40
31.03034208992807
 40
31.03034208992807
 10
-943.327901398168
 20
530.6326583181522
 30
0.0
 41
1.0
 10
-919.128473231858
 20
530.6326583181522
 30
0.0
 41
1.0
 10
-894.929045065548
 20
530.6326583181522
 30
0.0
 41
1.0
 10
-870.729616899238
 20
530.6326583181522
 30
0.0
 41
1.0
 10
-869.4491286867375
 20
526.0285555744683
 30
0.0
 41
1.0
 10
-868.1686404742372
 20
521.4244528307845
 30
0.0
 41
1.0
 10
-866.155686971607
 20
517.3082966421158
 30
0.0
 41
1.0
 10
-866.155686971607
 20
515.0830838674614
 30
0.0
 41
1.0
 10
-866.155686971607
 20
512.8578710928068
 30
0.0
 41
1.0
 10
-866.155686971607
 20
510.6326583181522
 30
0.0
 41
1.0
 10
-982.4064787153078
 20
510.6326583181521
 30
0.0
 41
1.0
 10
-1098.657270459008
 20
510.6326583181521
 30
0.0
 41
1.0
 10
-1214.908062202709
 20
510.6326583181521
 30
0.0
 41
1.0
 10
-1214.908062202709
 20
511.4142397443074
 30
0.0
 41
1.0
 10
-1214.908062202709
 20
512.1958211704629
 30
0.0
 41
1.0
 10
-1214.908062202709
 20
512.9774025966183
 30
0.0
 41
1.0
 10
-1212.609802844399
 20
514.9090332247867
 30
0.0
 41
0.9376521361836324
 10
-1211.342116899238
 20
517.6304602964125
 30
0.0
 41
0.9376521361836324
 10
-1211.342116899237
 20
520.6326583181521
 30
0.0
 41
1.0
 10
-1211.342116899238
 20
523.9659916514856
 30
0.0
 41
1.0
 10
-1211.342116899238
 20
527.299324984819
 30
0.0
 41
1.0
 10
-1211.342116899238
 20
530.6326583181523
 30
0.0
 41
1.0
 10
-1187.474757623992
 20
530.6326583181522
 30
0.0
 41
1.0
 10
-1163.607398348747
 20
530.6326583181522
 30
0.0
 41
1.0
 10
-1139.740039073502
 20
530.6326583181522
 30
0.0
 41
1.0
 10
-1139.740039073502
 20
532.2993249848186
 30
0.0
 41
1.0
 10
-1139.740039073502
 20
533.9659916514853
 30
0.0
 41
1.0
 10
-1139.740039073502
 20
535.6326583181519
 30
0.0
 41
1.0
 10
-1133.906705740169
 20
535.6326583181521
 30
0.0
 41
1.0
 10
-1128.073372406836
 20
535.6326583181521
 30
0.0
 41
1.0
 10
-1122.240039073503
 20
535.6326583181521
 30
0.0
 41
1.0
 10
-1122.240039073502
 20
533.9659916514856
 30
0.0
 41
1.0
 10
-1122.240039073502
 20
532.299324984819
 30
0.0
 41
1.0
 10
-1122.240039073502
 20
530.6326583181523
 30
0.0
 41
1.0
 10
-1098.254682794279
 20
530.6326583181522
 30
0.0
 41
1.0
 10
-1074.269326515057
 20
530.6326583181522
 30
0.0
 41
1.0
 10
-1050.283970235835
 20
530.6326583181522
 30
0.0
 41
1.0
 10
-1050.283970235835
 20
532.2993249848186
 30
0.0
 41
1.0
 10
-1050.283970235835
 20
533.9659916514853
 30
0.0
 41
1.0
 10
-1050.283970235835
 20
535.6326583181519
 30
0.0
 41
1.0
 10
-1044.450636902502
 20
535.6326583181521
 30
0.0
 41
1.0
 10
-1038.617303569169
 20
535.6326583181521
 30
0.0
 41
1.0
 10
-1032.783970235835
 20
535.6326583181521
 30
0.0
 41
1.0
 10
-1032.783970235835
 20
533.9659916514856
 30
0.0
 41
1.0
 10
-1032.783970235835
 20
532.299324984819
 30
0.0
 41
1.0
 10
-1032.783970235835
 20
530.6326583181523
 30
0.0
 41
1.0
 10
-1008.798613956612
 20
530.6326583181522
 30
0.0
 41
1.0
 10
-984.8132576773901
 20
530.6326583181522
 30
0.0
 41
1.0
 10
-960.8279013981677
 20
530.6326583181522
 30
0.0
 41
1.0
 10
-960.8279013981679
 20
532.2993249848186
 30
0.0
 41
1.0
 10
-960.8279013981679
 20
533.9659916514853
 30
0.0
 41
1.0
 10
-960.8279013981679
 20
535.6326583181519
 30
0.0
 41
1.0
 10
-954.9945680648344
 20
535.6326583181521
 30
0.0
 41
1.0
 10
-949.161234731501
 20
535.6326583181521
 30
0.0
 41
1.0
 10
-943.3279013981676
 20
535.6326583181521
 30
0.0
 41
1.0
 10
-943.3279013981678
 20
533.9659916514856
 30
0.0
 41
1.0
 10
-943.3279013981678
 20
532.299324984819
 30
0.0
 41
1.0
 10
-943.3279013981678
 20
530.6326583181523
 30
0.0
 41
1.0
  0
SPLINE
  5
760
330
6F
100
AcDbEntity
  8
0
  6
Continuous
100
AcDbSpline
210
0.0
220
0.0
230
1.0
 70
    13
 71
     3
 72
    62
 73
    58
 74
     0
 42
0.000000001
 43
0.0000000001
 40
0.0
 40
0.0
 40
0.0
 40
0.0
 40
0.2131404000115374
 40
0.2131404000115374
 40
0.2131404000115374
 40
14.15848429604
 40
14.15848429604
 40
14.15848429604
 40
15.15848429604
 40
15.15848429604
 40
15.15848429604
 40
16.15848429604
 40
16.15848429604
 40
16.15848429604
 40
17.15848429604
 40
17.15848429604
 40
17.15848429604
 40
18.03034208992806
 40
18.03034208992806
 40
18.03034208992806
 40
19.03034208992806
 40
19.03034208992806
 40
19.03034208992806
 40
20.03034208992807
 40
20.03034208992807
 40
20.03034208992807
 40
21.03034208992807
 40
21.03034208992807
 40
21.03034208992807
 40
22.03034208992807
 40
22.03034208992807
 40
22.03034208992807
 40
23.03034208992807
 40
23.03034208992807
 40
23.03034208992807
 40
24.03034208992807
 40
24.03034208992807
 40
24.03034208992807
 40
25.03034208992807
 40
25.03034208992807
 40
25.03034208992807
 40
26.03034208992807
 40
26.03034208992807
 40
26.03034208992807
 40
27.03034208992807
 40
27.03034208992807
 40
27.03034208992807
 40
28.03034208992807
 40
28.03034208992807
 40
28.03034208992807
 40
29.03034208992807
 40
29.03034208992807
 40
29.03034208992807
 40
30.03034208992807
 40
30.03034208992807
 40
30.03034208992807
 40
31.03034208992807
 40
31.03034208992807
 40
31.03034208992807
 40
31.03034208992807
 10
-941.9321867386276
 20
466.4191395580451
 30
0.0
 41
1.0
 10
-917.7327585723176
 20
466.4191395580451
 30
0.0
 41
1.0
 10
-893.5333304060076
 20
466.4191395580451
 30
0.0
 41
1.0
 10
-869.3339022396976
 20
466.4191395580451
 30
0.0
 41
1.0
 10
-868.0534140271973
 20
461.8150368143613
 30
0.0
 41
1.0
 10
-866.772925814697
 20
457.2109340706774
 30
0.0
 41
1.0
 10
-864.7599723120668
 20
453.0947778820087
 30
0.0
 41
1.0
 10
-864.7599723120668
 20
450.8695651073543
 30
0.0
 41
1.0
 10
-864.7599723120668
 20
448.6443523326998
 30
0.0
 41
1.0
 10
-864.7599723120668
 20
446.4191395580452
 30
0.0
 41
1.0
 10
-981.0107640557676
 20
446.4191395580451
 30
0.0
 41
1.0
 10
-1097.261555799468
 20
446.4191395580451
 30
0.0
 41
1.0
 10
-1213.512347543169
 20
446.4191395580451
 30
0.0
 41
1.0
 10
-1213.512347543169
 20
447.2007209842003
 30
0.0
 41
1.0
 10
-1213.512347543169
 20
447.9823024103558
 30
0.0
 41
1.0
 10
-1213.512347543169
 20
448.7638838365112
 30
0.0
 41
1.0
 10
-1211.214088184858
 20
450.6955144646797
 30
0.0
 41
0.9376521361836324
 10
-1209.946402239697
 20
453.4169415363055
 30
0.0
 41
0.9376521361836324
 10
-1209.946402239697
 20
456.4191395580451
 30
0.0
 41
1.0
 10
-1209.946402239697
 20
459.7524728913786
 30
0.0
 41
1.0
 10
-1209.946402239697
 20
463.085806224712
 30
0.0
 41
1.0
 10
-1209.946402239697
 20
466.4191395580453
 30
0.0
 41
1.0
 10
-1186.079042964452
 20
466.4191395580451
 30
0.0
 41
1.0
 10
-1162.211683689207
 20
466.4191395580451
 30
0.0
 41
1.0
 10
-1138.344324413962
 20
466.4191395580451
 30
0.0
 41
1.0
 10
-1138.344324413962
 20
468.0858062247116
 30
0.0
 41
1.0
 10
-1138.344324413962
 20
469.7524728913783
 30
0.0
 41
1.0
 10
-1138.344324413962
 20
471.4191395580448
 30
0.0
 41
1.0
 10
-1132.510991080629
 20
471.4191395580451
 30
0.0
 41
1.0
 10
-1126.677657747296
 20
471.4191395580451
 30
0.0
 41
1.0
 10
-1120.844324413962
 20
471.4191395580451
 30
0.0
 41
1.0
 10
-1120.844324413962
 20
469.7524728913785
 30
0.0
 41
1.0
 10
-1120.844324413962
 20
468.085806224712
 30
0.0
 41
1.0
 10
-1120.844324413962
 20
466.4191395580453
 30
0.0
 41
1.0
 10
-1096.858968134739
 20
466.4191395580451
 30
0.0
 41
1.0
 10
-1072.873611855517
 20
466.4191395580451
 30
0.0
 41
1.0
 10
-1048.888255576294
 20
466.4191395580451
 30
0.0
 41
1.0
 10
-1048.888255576295
 20
468.0858062247116
 30
0.0
 41
1.0
 10
-1048.888255576295
 20
469.7524728913783
 30
0.0
 41
1.0
 10
-1048.888255576295
 20
471.4191395580448
 30
0.0
 41
1.0
 10
-1043.054922242961
 20
471.4191395580451
 30
0.0
 41
1.0
 10
-1037.221588909628
 20
471.4191395580451
 30
0.0
 41
1.0
 10
-1031.388255576295
 20
471.4191395580451
 30
0.0
 41
1.0
 10
-1031.388255576294
 20
469.7524728913785
 30
0.0
 41
1.0
 10
-1031.388255576294
 20
468.085806224712
 30
0.0
 41
1.0
 10
-1031.388255576294
 20
466.4191395580453
 30
0.0
 41
1.0
 10
-1007.402899297072
 20
466.4191395580451
 30
0.0
 41
1.0
 10
-983.4175430178497
 20
466.4191395580451
 30
0.0
 41
1.0
 10
-959.4321867386273
 20
466.4191395580451
 30
0.0
 41
1.0
 10
-959.4321867386275
 20
468.0858062247116
 30
0.0
 41
1.0
 10
-959.4321867386275
 20
469.7524728913783
 30
0.0
 41
1.0
 10
-959.4321867386275
 20
471.4191395580448
 30
0.0
 41
1.0
 10
-953.5988534052942
 20
471.4191395580451
 30
0.0
 41
1.0
 10
-947.7655200719608
 20
471.4191395580451
 30
0.0
 41
1.0
 10
-941.9321867386273
 20
471.4191395580451
 30
0.0
 41
1.0
 10
-941.9321867386276
 20
469.7524728913785
 30
0.0
 41
1.0
 10
-941.9321867386276
 20
468.085806224712
 30
0.0
 41
1.0
 10
-941.9321867386276
 20
466.4191395580453
 30
0.0
 41
1.0
  0
LINE
  5
761
330
6F
100
AcDbEntity
  8
0
100
AcDbLine
 10
-418.4158402334054
 20
646.8020914455181
 30
0.0
 11
-418.4158402334054
 21
718.9022726078508
 31
0.0
  0
LINE
  5
762
330
6F
100
AcDbEntity
  8
0
100
AcDbLine
 10
-418.4158402334054
 20
736.4022726078508
 30
0.0
 11
-418.4158402334054
 21
808.3583414455182
 31
0.0
  0
LINE
  5
763
330
6F
100
AcDbEntity
  8
0
100
AcDbLine
 10
-418.4158402334054
 20
825.8583414455181
 30
0.0
 11
-418.4158402334054
 21
897.8144102831851
 31
0.0
  0
LINE
  5
764
330
6F
100
AcDbEntity
  8
0
100
AcDbLine
 10
-418.4158402334054
 20
915.3144102831852
 30
0.0
 11
-418.4158402334054
 21
987.414591445518
 31
0.0
  0
LINE
  5
765
330
6F
100
AcDbEntity
  8
0
100
AcDbLine
 10
-418.4158402334054
 20
987.414591445518
 30
0.0
 11
-490.7408402334054
 21
987.414591445518
 31
0.0
  0
LINE
  5
766
330
6F
100
AcDbEntity
  8
0
100
AcDbLine
 10
-490.7408402334055
 20
646.8020914455181
 30
0.0
 11
-418.4158402334054
 21
646.8020914455181
 31
0.0
  0
SPLINE
  5
767
330
6F
100
AcDbEntity
  8
0
  6
Continuous
100
AcDbSpline
210
0.0
220
0.0
230
1.0
 70
  1064
 71
     3
 72
    11
 73
     7
 74
     5
 42
0.000000001
 43
0.0000000001
 44
0.0000000001
 40
0.0
 40
0.0
 40
0.0
 40
0.0
 40
18.13589633877209
 40
47.12594389342863
 40
88.4067860606982
 40
117.3503932008629
 40
117.3503932008629
 40
117.3503932008629
 40
117.3503932008629
 10
-490.7408402334055
 20
646.8020914455181
 30
0.0
 10
-496.7284681266328
 20
645.1368186736117
 30
0.0
 10
-512.2872588740034
 20
640.8096241556138
 30
0.0
 10
-527.8803716816692
 20
612.284713869627
 30
0.0
 10
-529.5678322508381
 20
579.3383681500934
 30
0.0
 10
-538.8967565096203
 20
557.6405123229229
 30
0.0
 10
-542.7417523970847
 20
548.697555545915
 30
0.0
 11
-490.7408402334055
 21
646.8020914455181
 31
0.0
 11
-507.6304720653637
 21
640.1951956092277
 31
0.0
 11
-523.8064940661782
 21
616.1377815867187
 31
0.0
 11
-532.5886157354711
 21
575.8019133175869
 31
0.0
 11
-542.7417523970847
 21
548.697555545915
 31
0.0
  0
LINE
  5
768
330
6F
100
AcDbEntity
  8
0
  6
Continuous
100
AcDbLine
 10
-542.7417523970848
 20
548.697555545915
 30
0.0
 11
-505.9812629437185
 21
548.697555545915
 31
0.0
  0
LINE
  5
769
330
6F
100
AcDbEntity
  8
0
  6
Continuous
100
AcDbLine
 10
-403.1754175230923
 20
548.697555545915
 30
0.0
 11
-366.4149280697261
 21
548.697555545915
 31
0.0
  0
ARC
  5
76A
330
6F
100
AcDbEntity
  8
0
  6
Continuous
100
AcDbCircle
 10
-454.5783402334055
 20
548.697555545915
 30
0.0
 40
51.40292271031313
100
AcDbArc
 50
0.0
 51
180.0
  0
SPLINE
  5
76B
330
6F
100
AcDbEntity
  8
0
  6
Continuous
100
AcDbSpline
210
0.0
220
0.0
230
1.0
 70
     8
 71
     3
 72
    10
 73
     6
 74
     0
 42
0.000000001
 43
0.0000000001
 40
22.15368848488123
 40
22.15368848488123
 40
22.15368848488123
 40
22.15368848488123
 40
47.12594389342863
 40
88.4067860606982
 40
117.3503932008629
 40
117.3503932008629
 40
117.3503932008629
 40
117.3503932008629
 10
-398.4158402334054
 20
663.0075023932898
 30
0.0
 10
-397.1605369542098
 20
630.3213399546014
 30
0.0
 10
-381.2079733499372
 20
610.9505180286811
 30
0.0
 10
-379.5888482159728
 20
579.3383681500934
 30
0.0
 10
-370.2599239571907
 20
557.6405123229228
 30
0.0
 10
-366.4149280697262
 20
548.697555545915
 30
0.0
  0
ARC
  5
76C
330
6F
100
AcDbEntity
  8
0
  6
Continuous
100
AcDbCircle
 10
-500.7408402334054
 20
997.414591445518
 30
0.0
 40
10.0
100
AcDbArc
 50
90.0
 51
270.0
  0
LINE
  5
76D
330
6F
100
AcDbEntity
  8
0
  6
Continuous
100
AcDbLine
 10
-500.7408402334054
 20
987.414591445518
 30
0.0
 11
-490.7408402334054
 21
987.414591445518
 31
0.0
  0
LWPOLYLINE
  5
76E
330
6F
100
AcDbEntity
  8
0
100
AcDbPolyline
 90
        2
 70
     0
 43
0.0
 10
-500.7408402334054
 20
1007.414591445518
 10
-465.7586801209044
 20
1007.414591445518
  0
LWPOLYLINE
  5
76F
330
6F
100
AcDbEntity
  8
0
100
AcDbPolyline
 90
        4
 70
     0
 43
0.0
 10
-443.3980003459065
 20
1007.414591445518
 10
-408.4158402334054
 20
1007.414591445518
 42
-0.4142135623730951
 10
-398.4158402334054
 20
997.414591445518
 10
-398.4158402334054
 20
663.0075023932898
  0
LINE
  5
770
330
6F
100
AcDbEntity
  8
0
100
AcDbLine
 10
-418.4158402334054
 20
808.358341445518
 30
0.0
 11
-423.4158402334054
 21
808.358341445518
 31
0.0
  0
LINE
  5
771
330
6F
100
AcDbEntity
  8
0
100
AcDbLine
 10
-423.4158402334054
 20
808.358341445518
 30
0.0
 11
-423.4158402334054
 21
825.8583414455181
 31
0.0
  0
LINE
  5
772
330
6F
100
AcDbEntity
  8
0
100
AcDbLine
 10
-423.4158402334054
 20
825.8583414455181
 30
0.0
 11
-418.4158402334054
 21
825.8583414455181
 31
0.0
  0
LINE
  5
773
330
6F
100
AcDbEntity
  8
0
100
AcDbLine
 10
-418.4158402334054
 20
718.9022726078508
 30
0.0
 11
-423.4158402334054
 21
718.9022726078508
 31
0.0
  0
LINE
  5
774
330
6F
100
AcDbEntity
  8
0
100
AcDbLine
 10
-423.4158402334054
 20
718.9022726078508
 30
0.0
 11
-423.4158402334054
 21
736.4022726078508
 31
0.0
  0
LINE
  5
775
330
6F
100
AcDbEntity
  8
0
100
AcDbLine
 10
-423.4158402334054
 20
736.4022726078508
 30
0.0
 11
-418.4158402334054
 21
736.4022726078508
 31
0.0
  0
LINE
  5
776
330
6F
100
AcDbEntity
  8
0
100
AcDbLine
 10
-418.4158402334054
 20
915.3144102831852
 30
0.0
 11
-423.4158402334054
 21
915.3144102831852
 31
0.0
  0
LINE
  5
777
330
6F
100
AcDbEntity
  8
0
100
AcDbLine
 10
-423.4158402334054
 20
915.3144102831852
 30
0.0
 11
-423.4158402334054
 21
897.8144102831851
 31
0.0
  0
LINE
  5
778
330
6F
100
AcDbEntity
  8
0
100
AcDbLine
 10
-423.4158402334054
 20
897.8144102831851
 30
0.0
 11
-418.4158402334054
 21
897.8144102831851
 31
0.0
  0
CIRCLE
  5
779
330
6F
100
AcDbEntity
  8
0
  6
Continuous
100
AcDbCircle
 10
-500.7408402334054
 20
997.414591445518
 30
0.0
 40
3.0
  0
CIRCLE
  5
77A
330
6F
100
AcDbEntity
  8
0
  6
Continuous
100
AcDbCircle
 10
-500.7408402334055
 20
630.9420171090851
 30
0.0
 40
3.0
  0
LINE
  5
77B
330
6F
100
AcDbEntity
  8
0
100
AcDbLine
 10
-680.1012128446537
 20
646.8044015300272
 30
0.0
 11
-680.1012128446538
 21
718.9045826923599
 31
0.0
  0
LINE
  5
77C
330
6F
100
AcDbEntity
  8
0
100
AcDbLine
 10
-680.1012128446538
 20
736.40458269236
 30
0.0
 11
-680.1012128446537
 21
808.3606515300273
 31
0.0
  0
LINE
  5
77D
330
6F
100
AcDbEntity
  8
0
100
AcDbLine
 10
-680.1012128446537
 20
825.8606515300272
 30
0.0
 11
-680.1012128446537
 21
897.8167203676944
 31
0.0
  0
LINE
  5
77E
330
6F
100
AcDbEntity
  8
0
100
AcDbLine
 10
-680.1012128446537
 20
915.3167203676943
 30
0.0
 11
-680.1012128446538
 21
987.4169015300271
 31
0.0
  0
LINE
  5
77F
330
6F
100
AcDbEntity
  8
0
100
AcDbLine
 10
-680.1012128446538
 20
987.4169015300271
 30
0.0
 11
-607.7762128446538
 21
987.4169015300271
 31
0.0
  0
LINE
  5
780
330
6F
100
AcDbEntity
  8
0
100
AcDbLine
 10
-607.7762128446537
 20
646.8044015300272
 30
0.0
 11
-680.1012128446537
 21
646.8044015300272
 31
0.0
  0
SPLINE
  5
781
330
6F
100
AcDbEntity
  8
0
  6
Continuous
100
AcDbSpline
210
0.0
220
0.0
230
1.0
 70
     8
 71
     3
 72
    10
 73
     6
 74
     0
 42
0.000000001
 43
0.0000000001
 40
41.58160428491493
 40
41.58160428491493
 40
41.58160428491493
 40
41.58160428491493
 40
47.12594389342863
 40
88.4067860606982
 40
117.3503932008629
 40
117.3503932008629
 40
117.3503932008629
 40
117.3503932008629
 10
-576.7656872682763
 20
621.5310717325934
 30
0.0
 10
-576.0070282848611
 20
619.7568700897416
 30
0.0
 10
-570.237911973305
 20
604.501363349451
 30
0.0
 10
-568.9492208272211
 20
579.3406782346026
 30
0.0
 10
-559.6202965684389
 20
557.642822407432
 30
0.0
 10
-555.7753006809745
 20
548.6998656304242
 30
0.0
  0
LINE
  5
782
330
6F
100
AcDbEntity
  8
0
  6
Continuous
100
AcDbLine
 10
-555.7753006809743
 20
548.6998656304242
 30
0.0
 11
-592.5357901343407
 21
548.6998656304242
 31
0.0
  0
LINE
  5
783
330
6F
100
AcDbEntity
  8
0
  6
Continuous
100
AcDbLine
 10
-695.3416355549668
 20
548.6998656304242
 30
0.0
 11
-732.1021250083331
 21
548.6998656304242
 31
0.0
  0
ARC
  5
784
330
6F
100
AcDbEntity
  8
0
  6
Continuous
100
AcDbCircle
 10
-643.9387128446537
 20
548.6998656304242
 30
0.0
 40
51.40292271031313
100
AcDbArc
 50
0.0
 51
180.0
  0
SPLINE
  5
785
330
6F
100
AcDbEntity
  8
0
  6
Continuous
100
AcDbSpline
210
0.0
220
0.0
230
1.0
 70
     8
 71
     3
 72
    10
 73
     6
 74
     0
 42
0.000000001
 43
0.0000000001
 40
22.15368848488123
 40
22.15368848488123
 40
22.15368848488123
 40
22.15368848488123
 40
47.12594389342863
 40
88.4067860606982
 40
117.3503932008629
 40
117.3503932008629
 40
117.3503932008629
 40
117.3503932008629
 10
-700.1012128446538
 20
663.0098124777989
 30
0.0
 10
-701.3565161238495
 20
630.3236500391106
 30
0.0
 10
-717.3090797281219
 20
610.9528281131903
 30
0.0
 10
-718.9282048620864
 20
579.3406782346026
 30
0.0
 10
-728.2571291208685
 20
557.642822407432
 30
0.0
 10
-732.102125008333
 20
548.6998656304242
 30
0.0
  0
LWPOLYLINE
  5
786
330
6F
100
AcDbEntity
  8
0
100
AcDbPolyline
 90
        2
 70
     0
 43
0.0
 10
-607.7762128446538
 20
1007.416901530027
 10
-632.7583729571547
 20
1007.416901530027
  0
LWPOLYLINE
  5
787
330
6F
100
AcDbEntity
  8
0
100
AcDbPolyline
 90
        4
 70
     0
 43
0.0
 10
-655.1190527321526
 20
1007.416901530027
 10
-690.1012128446538
 20
1007.416901530027
 42
0.4142135623730951
 10
-700.1012128446538
 20
997.4169015300272
 10
-700.1012128446538
 20
663.0098124777989
  0
LINE
  5
788
330
6F
100
AcDbEntity
  8
0
100
AcDbLine
 10
-680.1012128446537
 20
808.3606515300271
 30
0.0
 11
-675.1012128446538
 21
808.3606515300271
 31
0.0
  0
LINE
  5
789
330
6F
100
AcDbEntity
  8
0
100
AcDbLine
 10
-675.1012128446538
 20
808.3606515300271
 30
0.0
 11
-675.1012128446538
 21
825.8606515300272
 31
0.0
  0
LINE
  5
78A
330
6F
100
AcDbEntity
  8
0
100
AcDbLine
 10
-675.1012128446538
 20
825.8606515300272
 30
0.0
 11
-680.1012128446537
 21
825.8606515300272
 31
0.0
  0
LINE
  5
78B
330
6F
100
AcDbEntity
  8
0
100
AcDbLine
 10
-680.1012128446537
 20
718.9045826923599
 30
0.0
 11
-675.1012128446538
 21
718.9045826923599
 31
0.0
  0
LINE
  5
78C
330
6F
100
AcDbEntity
  8
0
100
AcDbLine
 10
-675.1012128446538
 20
718.9045826923599
 30
0.0
 11
-675.1012128446538
 21
736.40458269236
 31
0.0
  0
LINE
  5
78D
330
6F
100
AcDbEntity
  8
0
100
AcDbLine
 10
-675.1012128446538
 20
736.40458269236
 30
0.0
 11
-680.1012128446537
 21
736.40458269236
 31
0.0
  0
LINE
  5
78E
330
6F
100
AcDbEntity
  8
0
100
AcDbLine
 10
-680.1012128446537
 20
915.3167203676943
 30
0.0
 11
-675.1012128446538
 21
915.3167203676943
 31
0.0
  0
LINE
  5
78F
330
6F
100
AcDbEntity
  8
0
100
AcDbLine
 10
-675.1012128446538
 20
915.3167203676943
 30
0.0
 11
-675.1012128446538
 21
897.8167203676944
 31
0.0
  0
LINE
  5
790
330
6F
100
AcDbEntity
  8
0
100
AcDbLine
 10
-675.1012128446538
 20
897.8167203676944
 30
0.0
 11
-680.1012128446537
 21
897.8167203676944
 31
0.0
  0
LWPOLYLINE
  5
791
330
6F
100
AcDbEntity
  8
0
  6
Continuous
100
AcDbPolyline
 90
        3
 70
     0
 43
0.0
 10
-607.7762128446537
 20
646.8044015300272
 10
-607.7762128446537
 20
630.9443271935946
 42
0.4142135623731017
 10
-597.7762128446537
 20
620.9443271935944
 42
0.4142135623731017
  0
ARC
  5
792
330
6F
100
AcDbEntity
  8
0
  6
Continuous
100
AcDbCircle
 10
-597.7762128446537
 20
997.4169015300272
 30
0.0
 40
376.4725743364328
100
AcDbArc
 50
270.0
 51
273.1992774707847
  0
LINE
  5
793
330
6F
100
AcDbEntity
  8
0
  6
Continuous
100
AcDbLine
 10
-607.7762128446538
 20
987.4169015300271
 30
0.0
 11
-607.7762128446538
 21
1007.416901530027
 31
0.0
  0
CIRCLE
  5
794
330
6F
100
AcDbEntity
  8
0
100
AcDbCircle
 10
-454.5783402334055
 20
623.4512848508731
 30
0.0
 40
4.0
  0
ARC
  5
795
330
6F
100
AcDbEntity
  8
0
100
AcDbCircle
 10
-454.5783402334055
 20
997.414591445518
 30
0.0
 40
15.0
100
AcDbArc
 50
41.81031489577626
 51
138.1896851042237
  0
CIRCLE
  5
796
330
6F
100
AcDbEntity
  8
0
100
AcDbCircle
 10
-454.5783402334055
 20
997.414591445518
 30
0.0
 40
4.0
  0
CIRCLE
  5
797
330
6F
100
AcDbEntity
  8
0
100
AcDbCircle
 10
-643.9387128446537
 20
623.4535949353823
 30
0.0
 40
4.0
  0
ARC
  5
798
330
6F
100
AcDbEntity
  8
0
100
AcDbCircle
 10
-643.9387128446537
 20
997.4169015300272
 30
0.0
 40
15.0
100
AcDbArc
 50
41.81031489577541
 51
138.1896851042246
  0
CIRCLE
  5
799
330
6F
100
AcDbEntity
  8
0
100
AcDbCircle
 10
-643.9387128446537
 20
997.4169015300272
 30
0.0
 40
4.0
  0
LINE
  5
7B8
330
6F
100
AcDbEntity
  8
0
  6
Continuous
 62
     3
100
AcDbLine
 10
-743.8913749640948
 20
-105.0554688774568
 30
0.0
 11
-743.891374964095
 21
-120.0554688774568
 31
0.0
  0
LINE
  5
7BA
330
6F
100
AcDbEntity
  8
0
  6
Continuous
100
AcDbLine
 10
-743.8913749640948
 20
-120.0554688774568
 30
0.0
 11
-728.8913749640949
 21
-120.0554688774568
 31
0.0
  0
LINE
  5
7BB
330
6F
100
AcDbEntity
  8
0
  6
Continuous
100
AcDbLine
 10
-728.8913749640949
 20
-120.0554688774568
 30
0.0
 11
-728.8913749640949
 21
-173.8054688774568
 31
0.0
  0
LINE
  5
7BC
330
6F
100
AcDbEntity
  8
0
  6
Continuous
100
AcDbLine
 10
-728.8913749640949
 20
-173.8054688774568
 30
0.0
 11
-743.8913749640948
 21
-173.8054688774568
 31
0.0
  0
LINE
  5
7BD
330
6F
100
AcDbEntity
  8
0
  6
Continuous
100
AcDbLine
 10
-743.8913749640948
 20
-120.0554688774568
 30
0.0
 11
-758.8913749640949
 21
-120.0554688774568
 31
0.0
  0
LINE
  5
7BE
330
6F
100
AcDbEntity
  8
0
  6
Continuous
100
AcDbLine
 10
-758.8913749640949
 20
-120.0554688774568
 30
0.0
 11
-758.8913749640949
 21
-173.8054688774568
 31
0.0
  0
LINE
  5
7BF
330
6F
100
AcDbEntity
  8
0
  6
Continuous
100
AcDbLine
 10
-758.8913749640949
 20
-173.8054688774568
 30
0.0
 11
-743.8913749640948
 21
-173.8054688774568
 31
0.0
  0
LINE
  5
7C0
330
6F
100
AcDbEntity
  8
0
  6
Continuous
 62
     3
100
AcDbLine
 10
-743.891374964095
 20
-173.8054688774568
 30
0.0
 11
-743.8913749640948
 21
-260.0554688774569
 31
0.0
  0
ENDSEC
  0
SECTION
  2
OBJECTS
  0
DICTIONARY
  5
C
330
0
100
AcDbDictionary
281
     1
  3
ACAD_CIP_PREVIOUS_PRODUCT_INFO
350
53A
  3
ACAD_COLOR
350
62
  3
ACAD_DETAILVIEWSTYLE
350
69
  3
ACAD_GROUP
350
D
  3
ACAD_LAYOUT
350
61
  3
ACAD_MATERIAL
350
10
  3
ACAD_MLEADERSTYLE
350
65
  3
ACAD_MLINESTYLE
350
5E
  3
ACAD_PLOTSETTINGS
350
60
  3
ACAD_PLOTSTYLENAME
350
E
  3
ACAD_SCALELIST
350
42
  3
ACAD_SECTIONVIEWSTYLE
350
67
  3
ACAD_TABLESTYLE
350
63
  3
ACAD_VISUALSTYLE
350
29
  3
ACDB_RECOMPOSE_DATA
350
7CA
  3
AcDbVariableDictionary
350
749
  0
DICTIONARY
  5
53E
330
2
100
AcDbDictionary
280
     1
281
     1
  3
ACAD_LAYERSTATES
360
53F
  0
DICTIONARY
  5
727
330
54
100
AcDbDictionary
280
     1
281
     1
  3
ADSK_XREC_LAYER_RECONCILED
360
728
  0
DICTIONARY
  5
73D
330
5A6
100
AcDbDictionary
280
     1
281
     1
  3
ADSK_XREC_LAYER_RECONCILED
360
73E
  0
DICTIONARY
  5
568
330
6F
100
AcDbDictionary
280
     1
281
     1
  3
ACAD_SORTENTS
360
569
  0
XRECORD
  5
53A
102
{ACAD_REACTORS
330
C
102
}
330
C
100
AcDbXrecord
280
     1
300
ACD
300
2022
300

  0
DICTIONARY
  5
62
102
{ACAD_REACTORS
330
C
102
}
330
C
100
AcDbDictionary
281
     1
  0
DICTIONARY
  5
69
102
{ACAD_REACTORS
330
C
102
}
330
C
100
AcDbDictionary
281
     1
  3
Imperial24
350
6A
  0
DICTIONARY
  5
D
102
{ACAD_REACTORS
330
C
102
}
330
C
100
AcDbDictionary
281
     1
  0
DICTIONARY
  5
61
102
{ACAD_REACTORS
330
C
102
}
330
C
100
AcDbDictionary
281
     1
  3
Layout1
350
6E
  3
Model
350
72
  0
DICTIONARY
  5
10
102
{ACAD_REACTORS
330
C
102
}
330
C
100
AcDbDictionary
281
     1
  3
ByBlock
350
19
  3
ByLayer
350
11
  3
Global
350
21
  0
DICTIONARY
  5
65
102
{ACAD_REACTORS
330
C
102
}
330
C
100
AcDbDictionary
281
     1
  3
Standard
350
66
  0
DICTIONARY
  5
5E
102
{ACAD_REACTORS
330
C
102
}
330
C
100
AcDbDictionary
281
     1
  3
Standard
350
5F
  0
DICTIONARY
  5
60
102
{ACAD_REACTORS
330
C
102
}
330
C
100
AcDbDictionary
281
     1
  0
ACDBDICTIONARYWDFLT
  5
E
102
{ACAD_REACTORS
330
C
102
}
330
C
100
AcDbDictionary
281
     1
  3
Normal
350
F
100
AcDbDictionaryWithDefault
340
F
  0
DICTIONARY
  5
42
102
{ACAD_REACTORS
330
C
102
}
330
C
100
AcDbDictionary
281
     1
  3
A0
350
43
  3
A1
350
44
  3
A2
350
45
  3
A3
350
46
  3
A4
350
47
  3
A5
350
48
  3
A6
350
49
  3
A7
350
4A
  3
A8
350
4B
  3
A9
350
4C
  3
B0
350
4D
  3
B1
350
4E
  3
B2
350
4F
  3
B3
350
50
  3
B4
350
51
  3
B5
350
52
  3
B6
350
53
  0
DICTIONARY
  5
67
102
{ACAD_REACTORS
330
C
102
}
330
C
100
AcDbDictionary
281
     1
  3
Imperial24
350
68
  0
DICTIONARY
  5
63
102
{ACAD_REACTORS
330
C
102
}
330
C
100
AcDbDictionary
281
     1
  3
Standard
350
64
  0
DICTIONARY
  5
29
102
{ACAD_REACTORS
330
C
102
}
330
C
100
AcDbDictionary
281
     1
  3
2dWireframe
350
2F
  3
Basic
350
2E
  3
Brighten
350
35
  3
ColorChange
350
39
  3
Conceptual
350
32
  3
Dim
350
34
  3
EdgeColorOff
350
41
  3
Facepattern
350
38
  3
Flat
350
2A
  3
FlatWithEdges
350
2B
  3
Gouraud
350
2C
  3
GouraudWithEdges
350
2D
  3
Hidden
350
31
  3
JitterOff
350
3F
  3
Linepattern
350
37
  3
OverhangOff
350
40
  3
Realistic
350
33
  3
Shaded
350
3E
  3
Shaded with edges
350
3D
  3
Shades of Gray
350
3A
  3
Sketchy
350
3B
  3
Thicken
350
36
  3
Wireframe
350
30
  3
X-Ray
350
3C
  0
XRECORD
  5
7CA
102
{ACAD_REACTORS
330
C
102
}
330
C
100
AcDbXrecord
280
     1
 90
        1
330
64
  0
DICTIONARY
  5
749
102
{ACAD_REACTORS
330
C
102
}
330
C
100
AcDbDictionary
281
     1
  3
CANNOSCALE
350
74F
  3
CMLEADERSTYLE
350
74B
  3
CTABLESTYLE
350
74A
  3
CVIEWDETAILSTYLE
350
74C
  3
CVIEWSECTIONSTYLE
350
74D
  3
LAYEREVAL
350
751
  3
LAYERNOTIFY
350
752
  3
LIGHTINGUNITS
350
750
  3
MSLTSCALE
350
74E
  0
DICTIONARY
  5
53F
102
{ACAD_REACTORS
330
53E
102
}
330
53E
100
AcDbDictionary
281
     1
  0
XRECORD
  5
728
102
{ACAD_REACTORS
330
727
102
}
330
727
100
AcDbXrecord
280
     1
290
     1
  0
XRECORD
  5
73E
102
{ACAD_REACTORS
330
73D
102
}
330
73D
100
AcDbXrecord
280
     1
290
     1
  0
SORTENTSTABLE
  5
569
102
{ACAD_REACTORS
330
568
102
}
330
568
100
AcDbSortentsTable
330
6F
331
563
  5
587
331
565
  5
590
331
566
  5
592
331
567
  5
591
331
575
  5
593
331
57B
  5
594
331
57C
  5
595
331
587
  5
596
331
590
  5
598
331
591
  5
59D
331
592
  5
59E
331
593
  5
59F
331
594
  5
5A0
331
595
  5
5A1
331
596
  5
5A2
331
597
  5
5A3
331
598
  5
5A4
331
59D
  5
5A5
331
59E
  5
5B7
331
59F
  5
563
331
5A0
  5
575
331
5A2
  5
576
331
5A3
  5
574
331
5A4
  5
567
331
5A5
  5
564
331
5B8
  5
614
331
614
  5
615
331
615
  5
616
331
616
  5
617
331
617
  5
618
331
618
  5
619
331
619
  5
61A
331
61A
  5
61B
331
61B
  5
61C
331
61C
  5
61D
331
61D
  5
61E
331
61E
  5
61F
331
61F
  5
620
331
620
  5
621
331
621
  5
622
331
622
  5
623
331
623
  5
624
331
624
  5
626
331
625
  5
627
331
626
  5
628
331
627
  5
629
331
628
  5
62A
331
629
  5
62B
331
62A
  5
62C
331
62B
  5
62E
331
62C
  5
62F
331
62E
  5
630
331
62F
  5
631
331
630
  5
632
331
631
  5
633
331
632
  5
634
331
633
  5
635
331
634
  5
636
331
635
  5
637
331
636
  5
638
331
637
  5
639
331
638
  5
63A
331
639
  5
63D
331
63A
  5
63E
331
63D
  5
63F
331
63E
  5
641
331
63F
  5
642
331
640
  5
643
331
641
  5
644
331
642
  5
645
331
643
  5
646
331
644
  5
649
331
645
  5
64D
331
646
  5
64E
331
64B
  5
659
331
64C
  5
65A
331
657
  5
658
331
658
  5
65C
331
659
  5
65F
331
65A
  5
679
331
65C
  5
6B2
331
6AE
  5
6B4
331
6B2
  5
6B5
331
6B3
  5
6B6
331
6B4
  5
6B7
331
6B5
  5
6B8
331
6B6
  5
6B9
331
6B7
  5
6BA
331
6B8
  5
6BB
331
6B9
  5
6BC
331
6BA
  5
6BD
331
6BB
  5
6BE
331
6BC
  5
6BF
331
6BD
  5
6C0
331
6BE
  5
6C1
331
6BF
  5
6C2
331
6C0
  5
6C3
331
6C1
  5
6C6
331
6C2
  5
6C7
331
6C3
  5
6C8
331
6C6
  5
6C9
331
6C7
  5
6CA
331
6C8
  5
6CB
331
6C9
  5
6CC
331
6CA
  5
6CD
331
6CB
  5
6CE
331
6CC
  5
6CF
331
6CD
  5
6D0
331
6CE
  5
6D1
331
6CF
  5
6D2
331
6D0
  5
6D3
331
6D1
  5
6D4
331
6D2
  5
6D5
331
6D3
  5
6D6
331
6D4
  5
6D7
331
6D5
  5
6FC
331
6D6
  5
6FD
331
6D7
  5
6FE
331
6FC
  5
6FF
331
6FD
  5
700
331
6FE
  5
701
331
6FF
  5
702
331
700
  5
703
331
701
  5
704
331
702
  5
710
331
703
  5
712
331
704
  5
713
331
710
  5
714
331
712
  5
715
331
713
  5
716
331
714
  5
597
331
715
  5
717
331
716
  5
718
331
717
  5
719
331
718
  5
71A
331
719
  5
721
331
71A
  5
722
331
721
  5
640
331
722
  5
625
331
75D
  5
75F
331
7BA
  5
7BB
331
7BB
  5
7BC
331
7BC
  5
7BD
331
7BD
  5
7BE
331
7BE
  5
7BF
331
7BF
  5
7C0
331
7C0
  5
7BA
  0
ACDBDETAILVIEWSTYLE
  5
6A
102
{ACAD_REACTORS
330
69
102
}
330
69
100
AcDbModelDocViewStyle
 70
     0
  3
Imperial24
290
     0
300
Imperial24
 90
        0
100
AcDbDetailViewStyle
 70
     0
 71
     0
 90
        3
 71
     1
340
55
 62
   256
 40
0.24
340
0
 62
   256
 40
0.24
300

 40
0.36
280
     3
 71
     2
340
5C
 90
       25
 62
   256
 71
     3
340
55
 62
   256
 40
0.24
 90
        1
 40
0.75
 90
        1
300
%<\AcVar ViewType \f "%tc1">% %<\AcVar ViewDetailId>%\PSCALE %<\AcVar ViewScale \f "%sn">%
 71
     4
340
5C
 90
       25
 62
   256
340
5C
 90
       25
 62
   256
280
     0
  0
LAYOUT
  5
6E
102
{ACAD_REACTORS
330
61
102
}
330
61
100
AcDbPlotSettings
  1

  2
Microsoft Print to PDF
  4

  6

 40
0.0
 41
0.0
 42
0.0
 43
0.0
 44
0.0
 45
0.0
 46
0.0
 47
0.0
 48
0.0
 49
0.0
140
0.0
141
0.0
142
1.0
143
1.0
 70
   688
 72
     0
 73
     0
 74
     5
  7

 75
    16
147
1.0
 76
     0
 77
     2
 78
   300
148
0.0
149
0.0
100
AcDbLayout
  1
Layout1
 70
     1
 71
     1
 10
0.0
 20
0.0
 11
12.0
 21
9.0
 12
0.0
 22
0.0
 32
0.0
 14
1.000000000000000E+20
 24
1.000000000000000E+20
 34
1.000000000000000E+20
 15
-1.000000000000000E+20
 25
-1.000000000000000E+20
 35
-1.000000000000000E+20
146
0.0
 13
0.0
 23
0.0
 33
0.0
 16
1.0
 26
0.0
 36
0.0
 17
0.0
 27
1.0
 37
0.0
 76
     0
330
6B
  0
LAYOUT
  5
72
102
{ACAD_REACTORS
330
61
102
}
330
61
100
AcDbPlotSettings
  1

  2
Microsoft Print to PDF
  4

  6

 40
0.0
 41
0.0
 42
0.0
 43
0.0
 44
0.0
 45
0.0
 46
0.0
 47
0.0
 48
0.0
 49
0.0
140
0.0
141
0.0
142
1.0
143
1.0
 70
  1712
 72
     0
 73
     0
 74
     0
  7

 75
     0
147
1.0
 76
     0
 77
     2
 78
   300
148
0.0
149
0.0
100
AcDbLayout
  1
Model
 70
     1
 71
     0
 10
0.0
 20
0.0
 11
12.0
 21
9.0
 12
0.0
 22
0.0
 32
0.0
 14
0.0
 24
0.0
 34
0.0
 15
0.0
 25
0.0
 35
0.0
146
0.0
 13
0.0
 23
0.0
 33
0.0
 16
1.0
 26
0.0
 36
0.0
 17
0.0
 27
1.0
 37
0.0
 76
     0
330
6F
331
74
  0
MATERIAL
  5
19
102
{ACAD_XDICTIONARY
360
1A
102
}
102
{ACAD_REACTORS
330
10
102
}
330
10
100
AcDbMaterial
  1
ByBlock
 72
     0
 43
0.0208333333333333
 43
0.0
 43
0.0
 43
0.0
 43
0.0
 43
0.0208333333333333
 43
0.0
 43
0.0
 43
0.0
 43
0.0
 43
1.0
 43
0.0
 43
0.0
 43
0.0
 43
0.0
 43
1.0
 77
     0
 47
0.0208333333333333
 47
0.0
 47
0.0
 47
0.0
 47
0.0
 47
0.0208333333333333
 47
0.0
 47
0.0
 47
0.0
 47
0.0
 47
1.0
 47
0.0
 47
0.0
 47
0.0
 47
0.0
 47
1.0
171
     0
 49
0.0208333333333333
 49
0.0
 49
0.0
 49
0.0
 49
0.0
 49
0.0208333333333333
 49
0.0
 49
0.0
 49
0.0
 49
0.0
 49
1.0
 49
0.0
 49
0.0
 49
0.0
 49
0.0
 49
1.0
175
     0
142
0.0208333333333333
142
0.0
142
0.0
142
0.0
142
0.0
142
0.0208333333333333
142
0.0
142
0.0
142
0.0
142
0.0
142
1.0
142
0.0
142
0.0
142
0.0
142
0.0
142
1.0
179
     0
144
0.0208333333333333
144
0.0
144
0.0
144
0.0
144
0.0
144
0.0208333333333333
144
0.0
144
0.0
144
0.0
144
0.0
144
1.0
144
0.0
144
0.0
144
0.0
144
0.0
144
1.0
147
0.0208333333333333
147
0.0
147
0.0
147
0.0
147
0.0
147
0.0208333333333333
147
0.0
147
0.0
147
0.0
147
0.0
147
1.0
147
0.0
147
0.0
147
0.0
147
0.0
147
1.0
  0
MATERIAL
  5
11
102
{ACAD_XDICTIONARY
360
12
102
}
102
{ACAD_REACTORS
330
10
102
}
330
10
100
AcDbMaterial
  1
ByLayer
 72
     0
 43
0.0208333333333333
 43
0.0
 43
0.0
 43
0.0
 43
0.0
 43
0.0208333333333333
 43
0.0
 43
0.0
 43
0.0
 43
0.0
 43
1.0
 43
0.0
 43
0.0
 43
0.0
 43
0.0
 43
1.0
 77
     0
 47
0.0208333333333333
 47
0.0
 47
0.0
 47
0.0
 47
0.0
 47
0.0208333333333333
 47
0.0
 47
0.0
 47
0.0
 47
0.0
 47
1.0
 47
0.0
 47
0.0
 47
0.0
 47
0.0
 47
1.0
171
     0
 49
0.0208333333333333
 49
0.0
 49
0.0
 49
0.0
 49
0.0
 49
0.0208333333333333
 49
0.0
 49
0.0
 49
0.0
 49
0.0
 49
1.0
 49
0.0
 49
0.0
 49
0.0
 49
0.0
 49
1.0
175
     0
142
0.0208333333333333
142
0.0
142
0.0
142
0.0
142
0.0
142
0.0208333333333333
142
0.0
142
0.0
142
0.0
142
0.0
142
1.0
142
0.0
142
0.0
142
0.0
142
0.0
142
1.0
179
     0
144
0.0208333333333333
144
0.0
144
0.0
144
0.0
144
0.0
144
0.0208333333333333
144
0.0
144
0.0
144
0.0
144
0.0
144
1.0
144
0.0
144
0.0
144
0.0
144
0.0
144
1.0
147
0.0208333333333333
147
0.0
147
0.0
147
0.0
147
0.0
147
0.0208333333333333
147
0.0
147
0.0
147
0.0
147
0.0
147
1.0
147
0.0
147
0.0
147
0.0
147
0.0
147
1.0
  0
MATERIAL
  5
21
102
{ACAD_XDICTIONARY
360
22
102
}
102
{ACAD_REACTORS
330
10
102
}
330
10
100
AcDbMaterial
  1
Global
 72
     0
 43
0.0208333333333333
 43
0.0
 43
0.0
 43
0.0
 43
0.0
 43
0.0208333333333333
 43
0.0
 43
0.0
 43
0.0
 43
0.0
 43
1.0
 43
0.0
 43
0.0
 43
0.0
 43
0.0
 43
1.0
 77
     0
 47
0.0208333333333333
 47
0.0
 47
0.0
 47
0.0
 47
0.0
 47
0.0208333333333333
 47
0.0
 47
0.0
 47
0.0
 47
0.0
 47
1.0
 47
0.0
 47
0.0
 47
0.0
 47
0.0
 47
1.0
171
     0
 49
0.0208333333333333
 49
0.0
 49
0.0
 49
0.0
 49
0.0
 49
0.0208333333333333
 49
0.0
 49
0.0
 49
0.0
 49
0.0
 49
1.0
 49
0.0
 49
0.0
 49
0.0
 49
0.0
 49
1.0
175
     0
142
0.0208333333333333
142
0.0
142
0.0
142
0.0
142
0.0
142
0.0208333333333333
142
0.0
142
0.0
142
0.0
142
0.0
142
1.0
142
0.0
142
0.0
142
0.0
142
0.0
142
1.0
179
     0
144
0.0208333333333333
144
0.0
144
0.0
144
0.0
144
0.0
144
0.0208333333333333
144
0.0
144
0.0
144
0.0
144
0.0
144
1.0
144
0.0
144
0.0
144
0.0
144
0.0
144
1.0
147
0.0208333333333333
147
0.0
147
0.0
147
0.0
147
0.0
147
0.0208333333333333
147
0.0
147
0.0
147
0.0
147
0.0
147
1.0
147
0.0
147
0.0
147
0.0
147
0.0
147
1.0
  0
MLEADERSTYLE
  5
66
102
{ACAD_REACTORS
330
65
102
}
330
65
100
AcDbMLeaderStyle
179
     2
170
     2
171
     1
172
     0
 90
        2
 40
0.0
 41
0.0
173
     1
 91
-1056964608
340
5A
 92
       -2
290
     1
 42
0.09
291
     1
 43
0.36
  3
Standard
 44
0.18
300

342
55
174
     1
178
     6
175
     1
176
     0
 93
-1056964608
 45
0.18
292
     0
297
     0
 46
0.18
 94
-1056964608
 47
1.0
 49
1.0
140
1.0
293
     1
141
0.0
294
     1
177
     0
142
1.0
295
     0
296
     0
143
0.125
271
     0
272
     9
273
     9
298
     0
  0
MLINESTYLE
  5
5F
102
{ACAD_REACTORS
330
5E
102
}
330
5E
100
AcDbMlineStyle
  2
STANDARD
 70
     0
  3

 62
   256
 51
90.0
 52
90.0
 71
     2
 49
0.5
 62
   256
  6
BYLAYER
 49
-0.5
 62
   256
  6
BYLAYER
  0
ACDBPLACEHOLDER
  5
F
102
{ACAD_REACTORS
330
E
102
}
330
E
  0
SCALE
  5
43
102
{ACAD_REACTORS
330
42
102
}
330
42
100
AcDbScale
 70
     0
300
1:1
140
1.0
141
1.0
290
     1
  0
SCALE
  5
44
102
{ACAD_REACTORS
330
42
102
}
330
42
100
AcDbScale
 70
     0
300
1/128" = 1'-0"
140
0.0078125
141
12.0
290
     0
  0
SCALE
  5
45
102
{ACAD_REACTORS
330
42
102
}
330
42
100
AcDbScale
 70
     0
300
1/64" = 1'-0"
140
0.015625
141
12.0
290
     0
  0
SCALE
  5
46
102
{ACAD_REACTORS
330
42
102
}
330
42
100
AcDbScale
 70
     0
300
1/32" = 1'-0"
140
0.03125
141
12.0
290
     0
  0
SCALE
  5
47
102
{ACAD_REACTORS
330
42
102
}
330
42
100
AcDbScale
 70
     0
300
1/16" = 1'-0"
140
0.0625
141
12.0
290
     0
  0
SCALE
  5
48
102
{ACAD_REACTORS
330
42
102
}
330
42
100
AcDbScale
 70
     0
300
3/32" = 1'-0"
140
0.09375
141
12.0
290
     0
  0
SCALE
  5
49
102
{ACAD_REACTORS
330
42
102
}
330
42
100
AcDbScale
 70
     0
300
1/8" = 1'-0"
140
0.125
141
12.0
290
     0
  0
SCALE
  5
4A
102
{ACAD_REACTORS
330
42
102
}
330
42
100
AcDbScale
 70
     0
300
3/16" = 1'-0"
140
0.1875
141
12.0
290
     0
  0
SCALE
  5
4B
102
{ACAD_REACTORS
330
42
102
}
330
42
100
AcDbScale
 70
     0
300
1/4" = 1'-0"
140
0.25
141
12.0
290
     0
  0
SCALE
  5
4C
102
{ACAD_REACTORS
330
42
102
}
330
42
100
AcDbScale
 70
     0
300
3/8" = 1'-0"
140
0.375
141
12.0
290
     0
  0
SCALE
  5
4D
102
{ACAD_REACTORS
330
42
102
}
330
42
100
AcDbScale
 70
     0
300
1/2" = 1'-0"
140
0.5
141
12.0
290
     0
  0
SCALE
  5
4E
102
{ACAD_REACTORS
330
42
102
}
330
42
100
AcDbScale
 70
     0
300
3/4" = 1'-0"
140
0.75
141
12.0
290
     0
  0
SCALE
  5
4F
102
{ACAD_REACTORS
330
42
102
}
330
42
100
AcDbScale
 70
     0
300
1" = 1'-0"
140
1.0
141
12.0
290
     0
  0
SCALE
  5
50
102
{ACAD_REACTORS
330
42
102
}
330
42
100
AcDbScale
 70
     0
300
1-1/2" = 1'-0"
140
1.5
141
12.0
290
     0
  0
SCALE
  5
51
102
{ACAD_REACTORS
330
42
102
}
330
42
100
AcDbScale
 70
     0
300
3" = 1'-0"
140
3.0
141
12.0
290
     0
  0
SCALE
  5
52
102
{ACAD_REACTORS
330
42
102
}
330
42
100
AcDbScale
 70
     0
300
6" = 1'-0"
140
6.0
141
12.0
290
     0
  0
SCALE
  5
53
102
{ACAD_REACTORS
330
42
102
}
330
42
100
AcDbScale
 70
     0
300
1'-0" = 1'-0"
140
12.0
141
12.0
290
     0
  0
ACDBSECTIONVIEWSTYLE
  5
68
102
{ACAD_REACTORS
330
67
102
}
330
67
100
AcDbModelDocViewStyle
 70
     0
  3
Imperial24
290
     0
300
Imperial24
 90
        0
100
AcDbSectionViewStyle
 70
     0
 71
     0
 90
       78
 71
     1
340
55
 62
   256
 40
0.24
340
0
340
0
 62
   256
 40
0.24
300
I, O, Q, S, X, Z
 40
0.48
 90
        3
 40
0.18
 90
        1
 71
     2
340
5C
 90
       25
 62
   256
340
5C
 90
       50
 62
   256
 40
0.24
 40
0.0
 40
0.24
 71
     3
340
55
 62
   256
 40
0.24
 90
        1
 40
0.75
 90
        1
300
%<\AcVar ViewType \f "%tc1">% %<\AcVar ViewSectionStartId>%-%<\AcVar ViewSectionEndId>%\PSCALE %<\AcVar ViewScale \f "%sn">%
 71
     4
 62
   256
 62
   257
300
ANSI31
 40
1.0
 90
        0
290
     0
290
     0
 90
        6
 40
0.0
 40
1.570796326794896
 40
0.2617993877991494
 40
1.308996938995747
 40
-0.2617993877991494
 40
1.832595714594046
  0
TABLESTYLE
  5
64
102
{ACAD_XDICTIONARY
360
7C8
102
}
102
{ACAD_REACTORS
330
63
102
}
330
63
100
AcDbTableStyle
280
     0
  3
Standard
 70
     0
 71
     0
 40
0.06
 41
0.06
280
     0
281
     0
  7
Standard
140
0.18
170
     2
 62
     0
 63
     7
283
     0
 90
      512
 91
        0
  1

274
    -2
284
     1
 64
     0
275
    -2
285
     1
 65
     0
276
    -2
286
     1
 66
     0
277
    -2
287
     1
 67
     0
278
    -2
288
     1
 68
     0
279
    -2
289
     1
 69
     0
  7
Standard
140
0.25
170
     5
 62
     0
 63
     7
283
     0
 90
      512
 91
        0
  1

274
    -2
284
     1
 64
     0
275
    -2
285
     1
 65
     0
276
    -2
286
     1
 66
     0
277
    -2
287
     1
 67
     0
278
    -2
288
     1
 68
     0
279
    -2
289
     1
 69
     0
  7
Standard
140
0.18
170
     5
 62
     0
 63
     7
283
     0
 90
      512
 91
        0
  1

274
    -2
284
     1
 64
     0
275
    -2
285
     1
 65
     0
276
    -2
286
     1
 66
     0
277
    -2
287
     1
 67
     0
278
    -2
288
     1
 68
     0
279
    -2
289
     1
 69
     0
  0
VISUALSTYLE
  5
2F
102
{ACAD_REACTORS
330
29
102
}
330
29
100
AcDbVisualStyle
  2
2dWireframe
 70
     4
177
     3
291
     0
 70
    58
 90
        0
176
     1
 90
        2
176
     1
 90
        0
176
     1
 90
        0
176
     1
 40
0.6
176
     1
 40
30.0
176
     1
 62
     7
420
 16777215
176
     1
 90
        1
176
     1
 90
        4
176
     1
 62
     7
176
     1
 62
   257
176
     1
 90
        1
176
     1
 90
        1
176
     1
 40
1.0
176
     1
 90
        0
176
     1
 62
   257
176
     1
 40
1.0
176
     1
 90
        1
176
     1
 90
        6
176
     1
 90
        2
176
     1
 62
     7
176
     1
 90
        5
176
     1
 90
        0
176
     1
 90
        0
176
     1
290
     0
176
     1
 90
        1
176
     1
 40
0.0
176
     1
 90
        0
176
     1
290
     1
176
     1
290
     1
176
     1
290
     0
176
     1
290
     0
176
     1
290
     0
176
     1
290
     0
176
     1
290
     0
176
     1
290
     0
176
     1
290
     0
176
     1
 90
       50
176
     1
 40
0.0
176
     1
 40
1.0
176
     1
 90
        0
176
     1
 62
    18
420
        0
176
     1
 90
       50
176
     1
 90
        3
176
     1
 62
     5
420
      255
176
     1
290
     0
176
     1
 90
       50
176
     1
 90
       50
176
     1
 90
       50
176
     1
290
     0
176
     1
 90
       50
176
     1
 62
   256
176
     0
 40
1.0
176
     0
 90
        2
176
     1
  1
strokes_ogs.tif
176
     1
290
     0
176
     1
 40
1.0
176
     1
 40
1.0
176
     1
  0
VISUALSTYLE
  5
2E
102
{ACAD_REACTORS
330
29
102
}
330
29
100
AcDbVisualStyle
  2
Basic
 70
     7
177
     3
291
     1
 70
    58
 90
        1
176
     1
 90
        0
176
     1
 90
        1
176
     1
 90
        0
176
     1
 40
0.6
176
     1
 40
30.0
176
     1
 62
     7
420
 16777215
176
     1
 90
        0
176
     1
 90
        4
176
     1
 62
     7
176
     1
 62
   257
176
     1
 90
        1
176
     1
 90
        1
176
     1
 40
1.0
176
     1
 90
        8
176
     1
 62
     7
176
     1
 40
1.0
176
     1
 90
        1
176
     1
 90
        6
176
     1
 90
        2
176
     1
 62
     7
176
     1
 90
        5
176
     1
 90
        0
176
     1
 90
        0
176
     1
290
     0
176
     1
 90
        1
176
     1
 40
0.0
176
     1
 90
        0
176
     1
290
     0
176
     1
290
     1
176
     1
290
     1
176
     1
290
     0
176
     1
290
     0
176
     1
290
     0
176
     1
290
     0
176
     1
290
     0
176
     1
290
     0
176
     1
 90
       50
176
     1
 40
0.0
176
     1
 40
1.0
176
     1
 90
        0
176
     1
 62
    18
420
        0
176
     1
 90
       50
176
     1
 90
        3
176
     1
 62
     5
420
      255
176
     1
290
     0
176
     1
 90
       50
176
     1
 90
       50
176
     1
 90
       50
176
     1
290
     0
176
     1
 90
       50
176
     1
 62
   256
176
     0
 40
1.0
176
     0
 90
        2
176
     1
  1
strokes_ogs.tif
176
     1
290
     0
176
     1
 40
1.0
176
     1
 40
1.0
176
     1
  0
VISUALSTYLE
  5
35
102
{ACAD_REACTORS
330
29
102
}
330
29
100
AcDbVisualStyle
  2
Brighten
 70
    12
177
     3
291
     1
 70
    58
 90
        2
176
     1
 90
        2
176
     1
 90
        0
176
     1
 90
        0
176
     1
 40
0.6
176
     1
 40
30.0
176
     1
 62
     7
420
 16777215
176
     1
 90
        1
176
     1
 90
        4
176
     1
 62
     7
176
     1
 62
   257
176
     1
 90
        1
176
     1
 90
        1
176
     1
 40
1.0
176
     1
 90
        8
176
     1
 62
     7
176
     1
 40
1.0
176
     1
 90
        1
176
     1
 90
        6
176
     1
 90
        2
176
     1
 62
     7
176
     1
 90
        5
176
     1
 90
        0
176
     1
 90
        0
176
     1
290
     0
176
     1
 90
        1
176
     1
 40
50.0
176
     1
 90
        0
176
     1
290
     0
176
     1
290
     1
176
     1
290
     1
176
     1
290
     0
176
     1
290
     0
176
     1
290
     0
176
     1
290
     0
176
     1
290
     0
176
     1
290
     0
176
     1
 90
       50
176
     1
 40
0.0
176
     1
 40
1.0
176
     1
 90
        0
176
     1
 62
    18
420
        0
176
     1
 90
       50
176
     1
 90
        3
176
     1
 62
     5
420
      255
176
     1
290
     0
176
     1
 90
       50
176
     1
 90
       50
176
     1
 90
       50
176
     1
290
     0
176
     1
 90
       50
176
     1
 62
   256
176
     0
 40
1.0
176
     0
 90
        2
176
     1
  1
strokes_ogs.tif
176
     1
290
     0
176
     1
 40
1.0
176
     1
 40
1.0
176
     1
  0
VISUALSTYLE
  5
39
102
{ACAD_REACTORS
330
29
102
}
330
29
100
AcDbVisualStyle
  2
ColorChange
 70
    16
177
     3
291
     1
 70
    58
 90
        2
176
     1
 90
        2
176
     1
 90
        3
176
     1
 90
        0
176
     1
 40
0.6
176
     1
 40
30.0
176
     1
 62
     8
420
  8421504
176
     1
 90
        1
176
     1
 90
        4
176
     1
 62
     7
176
     1
 62
   257
176
     1
 90
        1
176
     1
 90
        1
176
     1
 40
1.0
176
     1
 90
        8
176
     1
 62
     8
420
  8421504
176
     1
 40
1.0
176
     1
 90
        1
176
     1
 90
        6
176
     1
 90
        2
176
     1
 62
     7
176
     1
 90
        5
176
     1
 90
        0
176
     1
 90
        0
176
     1
290
     0
176
     1
 90
        1
176
     1
 40
0.0
176
     1
 90
        0
176
     1
290
     0
176
     1
290
     1
176
     1
290
     1
176
     1
290
     0
176
     1
290
     0
176
     1
290
     0
176
     1
290
     0
176
     1
290
     0
176
     1
290
     0
176
     1
 90
       50
176
     1
 40
0.0
176
     1
 40
1.0
176
     1
 90
        0
176
     1
 62
    18
420
        0
176
     1
 90
       50
176
     1
 90
        3
176
     1
 62
     5
420
      255
176
     1
290
     0
176
     1
 90
       50
176
     1
 90
       50
176
     1
 90
       50
176
     1
290
     0
176
     1
 90
       50
176
     1
 62
   256
176
     0
 40
1.0
176
     0
 90
        2
176
     1
  1
strokes_ogs.tif
176
     1
290
     0
176
     1
 40
1.0
176
     1
 40
1.0
176
     1
  0
VISUALSTYLE
  5
32
102
{ACAD_REACTORS
330
29
102
}
330
29
100
AcDbVisualStyle
  2
Conceptual
 70
     9
177
     3
291
     0
 70
    58
 90
        3
176
     1
 90
        2
176
     1
 90
        0
176
     1
 90
        0
176
     1
 40
0.6
176
     1
 40
30.0
176
     1
 62
     7
420
 16777215
176
     1
 90
        2
176
     1
 90
        2
176
     1
 62
     7
176
     1
 62
   257
176
     1
 90
        1
176
     1
 90
        1
176
     1
 40
179.0
176
     1
 90
        8
176
     1
 62
     7
176
     1
 40
1.0
176
     1
 90
        1
176
     1
 90
        6
176
     1
 90
        2
176
     1
 62
     7
176
     1
 90
        3
176
     1
 90
        0
176
     1
 90
        0
176
     1
290
     0
176
     1
 90
        1
176
     1
 40
0.0
176
     1
 90
        0
176
     1
290
     0
176
     1
290
     1
176
     1
290
     1
176
     1
290
     0
176
     1
290
     0
176
     1
290
     0
176
     1
290
     0
176
     1
290
     0
176
     1
290
     0
176
     1
 90
       50
176
     1
 40
0.0
176
     1
 40
1.0
176
     1
 90
        0
176
     1
 62
    18
420
        0
176
     1
 90
       50
176
     1
 90
        3
176
     1
 62
     5
420
      255
176
     1
290
     0
176
     1
 90
       50
176
     1
 90
       50
176
     1
 90
       50
176
     1
290
     0
176
     1
 90
       50
176
     1
 62
   256
176
     0
 40
1.0
176
     0
 90
        2
176
     1
  1
strokes_ogs.tif
176
     1
290
     0
176
     1
 40
1.0
176
     1
 40
1.0
176
     1
  0
VISUALSTYLE
  5
34
102
{ACAD_REACTORS
330
29
102
}
330
29
100
AcDbVisualStyle
  2
Dim
 70
    11
177
     3
291
     1
 70
    58
 90
        2
176
     1
 90
        2
176
     1
 90
        0
176
     1
 90
        0
176
     1
 40
0.6
176
     1
 40
30.0
176
     1
 62
     7
420
 16777215
176
     1
 90
        1
176
     1
 90
        4
176
     1
 62
     7
176
     1
 62
   257
176
     1
 90
        1
176
     1
 90
        1
176
     1
 40
1.0
176
     1
 90
        8
176
     1
 62
     7
176
     1
 40
1.0
176
     1
 90
        1
176
     1
 90
        6
176
     1
 90
        2
176
     1
 62
     7
176
     1
 90
        5
176
     1
 90
        0
176
     1
 90
        0
176
     1
290
     0
176
     1
 90
        1
176
     1
 40
-50.0
176
     1
 90
        0
176
     1
290
     0
176
     1
290
     1
176
     1
290
     1
176
     1
290
     0
176
     1
290
     0
176
     1
290
     0
176
     1
290
     0
176
     1
290
     0
176
     1
290
     0
176
     1
 90
       50
176
     1
 40
0.0
176
     1
 40
1.0
176
     1
 90
        0
176
     1
 62
    18
420
        0
176
     1
 90
       50
176
     1
 90
        3
176
     1
 62
     5
420
      255
176
     1
290
     0
176
     1
 90
       50
176
     1
 90
       50
176
     1
 90
       50
176
     1
290
     0
176
     1
 90
       50
176
     1
 62
   256
176
     0
 40
1.0
176
     0
 90
        2
176
     1
  1
strokes_ogs.tif
176
     1
290
     0
176
     1
 40
1.0
176
     1
 40
1.0
176
     1
  0
VISUALSTYLE
  5
41
102
{ACAD_REACTORS
330
29
102
}
330
29
100
AcDbVisualStyle
  2
EdgeColorOff
 70
    22
177
     3
291
     1
 70
    58
 90
        2
176
     0
 90
        2
176
     0
 90
        0
176
     0
 90
        0
176
     0
 40
0.6
176
     0
 40
30.0
176
     0
 62
     7
420
 16777215
176
     0
 90
        1
176
     0
 90
        4
176
     0
 62
     7
176
     0
 62
   257
176
     0
 90
        1
176
     0
 90
        1
176
     0
 40
1.0
176
     0
 90
        8
176
     2
 62
     7
176
     0
 40
1.0
176
     0
 90
        1
176
     0
 90
        6
176
     0
 90
        2
176
     0
 62
     7
176
     0
 90
        5
176
     0
 90
        0
176
     0
 90
        0
176
     0
290
     0
176
     0
 90
        1
176
     0
 40
0.0
176
     0
 90
        0
176
     0
290
     0
176
     1
290
     1
176
     1
290
     1
176
     1
290
     0
176
     1
290
     0
176
     1
290
     0
176
     1
290
     0
176
     1
290
     0
176
     1
290
     0
176
     1
 90
       50
176
     0
 40
0.0
176
     0
 40
1.0
176
     0
 90
        0
176
     0
 62
    18
420
        0
176
     0
 90
       50
176
     0
 90
        3
176
     0
 62
     5
420
      255
176
     0
290
     0
176
     1
 90
       50
176
     0
 90
       50
176
     0
 90
       50
176
     0
290
     0
176
     1
 90
       50
176
     0
 62
   256
176
     0
 40
1.0
176
     0
 90
        2
176
     0
  1
strokes_ogs.tif
176
     0
290
     0
176
     1
 40
1.0
176
     0
 40
1.0
176
     0
  0
VISUALSTYLE
  5
38
102
{ACAD_REACTORS
330
29
102
}
330
29
100
AcDbVisualStyle
  2
Facepattern
 70
    15
177
     3
291
     1
 70
    58
 90
        2
176
     1
 90
        2
176
     1
 90
        0
176
     1
 90
        0
176
     1
 40
0.6
176
     1
 40
30.0
176
     1
 62
     7
420
 16777215
176
     1
 90
        1
176
     1
 90
        4
176
     1
 62
     7
176
     1
 62
   257
176
     1
 90
        1
176
     1
 90
        1
176
     1
 40
1.0
176
     1
 90
        8
176
     1
 62
     7
176
     1
 40
1.0
176
     1
 90
        1
176
     1
 90
        6
176
     1
 90
        2
176
     1
 62
     7
176
     1
 90
        5
176
     1
 90
        0
176
     1
 90
        0
176
     1
290
     0
176
     1
 90
        1
176
     1
 40
0.0
176
     1
 90
        0
176
     1
290
     0
176
     1
290
     1
176
     1
290
     1
176
     1
290
     0
176
     1
290
     0
176
     1
290
     0
176
     1
290
     0
176
     1
290
     0
176
     1
290
     0
176
     1
 90
       50
176
     1
 40
0.0
176
     1
 40
1.0
176
     1
 90
        0
176
     1
 62
    18
420
        0
176
     1
 90
       50
176
     1
 90
        3
176
     1
 62
     5
420
      255
176
     1
290
     0
176
     1
 90
       50
176
     1
 90
       50
176
     1
 90
       50
176
     1
290
     0
176
     1
 90
       50
176
     1
 62
   256
176
     0
 40
1.0
176
     0
 90
        2
176
     1
  1
strokes_ogs.tif
176
     1
290
     0
176
     1
 40
1.0
176
     1
 40
1.0
176
     1
  0
VISUALSTYLE
  5
2A
102
{ACAD_REACTORS
330
29
102
}
330
29
100
AcDbVisualStyle
  2
Flat
 70
     0
177
     3
291
     1
 70
    58
 90
        2
176
     1
 90
        1
176
     1
 90
        1
176
     1
 90
        2
176
     1
 40
0.6
176
     1
 40
30.0
176
     1
 62
     7
420
 16777215
176
     1
 90
        0
176
     1
 90
        0
176
     1
 62
     7
176
     1
 62
   257
176
     1
 90
        1
176
     1
 90
        1
176
     1
 40
1.0
176
     1
 90
        8
176
     1
 62
     7
176
     1
 40
1.0
176
     1
 90
        1
176
     1
 90
        6
176
     1
 90
        2
176
     1
 62
     7
176
     1
 90
        5
176
     1
 90
        0
176
     1
 90
        0
176
     1
290
     0
176
     1
 90
       13
176
     1
 40
0.0
176
     1
 90
        0
176
     1
290
     0
176
     1
290
     1
176
     1
290
     1
176
     1
290
     0
176
     1
290
     0
176
     1
290
     0
176
     1
290
     0
176
     1
290
     0
176
     1
290
     0
176
     1
 90
       50
176
     1
 40
0.0
176
     1
 40
1.0
176
     1
 90
        0
176
     1
 62
    18
420
        0
176
     1
 90
       50
176
     1
 90
        3
176
     1
 62
     5
420
      255
176
     1
290
     0
176
     1
 90
       50
176
     1
 90
       50
176
     1
 90
       50
176
     1
290
     0
176
     1
 90
       50
176
     1
 62
   256
176
     0
 40
1.0
176
     0
 90
        2
176
     1
  1
strokes_ogs.tif
176
     1
290
     0
176
     1
 40
1.0
176
     1
 40
1.0
176
     1
  0
VISUALSTYLE
  5
2B
102
{ACAD_REACTORS
330
29
102
}
330
29
100
AcDbVisualStyle
  2
FlatWithEdges
 70
     1
177
     3
291
     1
 70
    58
 90
        2
176
     1
 90
        1
176
     1
 90
        1
176
     1
 90
        2
176
     1
 40
0.6
176
     1
 40
30.0
176
     1
 62
     7
420
 16777215
176
     1
 90
        1
176
     1
 90
        0
176
     1
 62
     7
176
     1
 62
   257
176
     1
 90
        1
176
     1
 90
        1
176
     1
 40
1.0
176
     1
 90
        0
176
     1
 62
   257
176
     1
 40
1.0
176
     1
 90
        1
176
     1
 90
        6
176
     1
 90
        2
176
     1
 62
     7
176
     1
 90
        5
176
     1
 90
        0
176
     1
 90
        0
176
     1
290
     0
176
     1
 90
       13
176
     1
 40
0.0
176
     1
 90
        0
176
     1
290
     0
176
     1
290
     1
176
     1
290
     1
176
     1
290
     0
176
     1
290
     0
176
     1
290
     0
176
     1
290
     0
176
     1
290
     0
176
     1
290
     0
176
     1
 90
       50
176
     1
 40
0.0
176
     1
 40
1.0
176
     1
 90
        0
176
     1
 62
    18
420
        0
176
     1
 90
       50
176
     1
 90
        3
176
     1
 62
     5
420
      255
176
     1
290
     0
176
     1
 90
       50
176
     1
 90
       50
176
     1
 90
       50
176
     1
290
     0
176
     1
 90
       50
176
     1
 62
   256
176
     0
 40
1.0
176
     0
 90
        2
176
     1
  1
strokes_ogs.tif
176
     1
290
     0
176
     1
 40
1.0
176
     1
 40
1.0
176
     1
  0
VISUALSTYLE
  5
2C
102
{ACAD_REACTORS
330
29
102
}
330
29
100
AcDbVisualStyle
  2
Gouraud
 70
     2
177
     3
291
     1
 70
    58
 90
        2
176
     1
 90
        2
176
     1
 90
        1
176
     1
 90
        2
176
     1
 40
0.6
176
     1
 40
30.0
176
     1
 62
     7
420
 16777215
176
     1
 90
        0
176
     1
 90
        0
176
     1
 62
     7
176
     1
 62
   257
176
     1
 90
        1
176
     1
 90
        1
176
     1
 40
1.0
176
     1
 90
        0
176
     1
 62
     7
176
     1
 40
1.0
176
     1
 90
        1
176
     1
 90
        6
176
     1
 90
        2
176
     1
 62
     7
176
     1
 90
        5
176
     1
 90
        0
176
     1
 90
        0
176
     1
290
     0
176
     1
 90
       13
176
     1
 40
0.0
176
     1
 90
        0
176
     1
290
     0
176
     1
290
     1
176
     1
290
     1
176
     1
290
     0
176
     1
290
     0
176
     1
290
     0
176
     1
290
     0
176
     1
290
     0
176
     1
290
     0
176
     1
 90
       50
176
     1
 40
0.0
176
     1
 40
1.0
176
     1
 90
        0
176
     1
 62
    18
420
        0
176
     1
 90
       50
176
     1
 90
        3
176
     1
 62
     5
420
      255
176
     1
290
     0
176
     1
 90
       50
176
     1
 90
       50
176
     1
 90
       50
176
     1
290
     0
176
     1
 90
       50
176
     1
 62
   256
176
     0
 40
1.0
176
     0
 90
        2
176
     1
  1
strokes_ogs.tif
176
     1
290
     0
176
     1
 40
1.0
176
     1
 40
1.0
176
     1
  0
VISUALSTYLE
  5
2D
102
{ACAD_REACTORS
330
29
102
}
330
29
100
AcDbVisualStyle
  2
GouraudWithEdges
 70
     3
177
     3
291
     1
 70
    58
 90
        2
176
     1
 90
        2
176
     1
 90
        1
176
     1
 90
        2
176
     1
 40
0.6
176
     1
 40
30.0
176
     1
 62
     7
420
 16777215
176
     1
 90
        1
176
     1
 90
        0
176
     1
 62
     7
176
     1
 62
   257
176
     1
 90
        1
176
     1
 90
        1
176
     1
 40
1.0
176
     1
 90
        0
176
     1
 62
   257
176
     1
 40
1.0
176
     1
 90
        1
176
     1
 90
        6
176
     1
 90
        2
176
     1
 62
     7
176
     1
 90
        5
176
     1
 90
        0
176
     1
 90
        0
176
     1
290
     0
176
     1
 90
       13
176
     1
 40
0.0
176
     1
 90
        0
176
     1
290
     0
176
     1
290
     1
176
     1
290
     1
176
     1
290
     0
176
     1
290
     0
176
     1
290
     0
176
     1
290
     0
176
     1
290
     0
176
     1
290
     0
176
     1
 90
       50
176
     1
 40
0.0
176
     1
 40
1.0
176
     1
 90
        0
176
     1
 62
    18
420
        0
176
     1
 90
       50
176
     1
 90
        3
176
     1
 62
     5
420
      255
176
     1
290
     0
176
     1
 90
       50
176
     1
 90
       50
176
     1
 90
       50
176
     1
290
     0
176
     1
 90
       50
176
     1
 62
   256
176
     0
 40
1.0
176
     0
 90
        2
176
     1
  1
strokes_ogs.tif
176
     1
290
     0
176
     1
 40
1.0
176
     1
 40
1.0
176
     1
  0
VISUALSTYLE
  5
31
102
{ACAD_REACTORS
330
29
102
}
330
29
100
AcDbVisualStyle
  2
Hidden
 70
     6
177
     3
291
     0
 70
    58
 90
        1
176
     1
 90
        2
176
     1
 90
        2
176
     1
 90
        0
176
     1
 40
0.6
176
     1
 40
30.0
176
     1
 62
     7
420
 16777215
176
     1
 90
        2
176
     1
 90
        2
176
     1
 62
     7
176
     1
 62
   257
176
     1
 90
        2
176
     1
 90
        1
176
     1
 40
40.0
176
     1
 90
        0
176
     1
 62
   257
176
     1
 40
1.0
176
     1
 90
        1
176
     1
 90
        6
176
     1
 90
        2
176
     1
 62
     7
176
     1
 90
        3
176
     1
 90
        0
176
     1
 90
        0
176
     1
290
     0
176
     1
 90
        1
176
     1
 40
0.0
176
     1
 90
        0
176
     1
290
     0
176
     1
290
     1
176
     1
290
     1
176
     1
290
     0
176
     1
290
     0
176
     1
290
     0
176
     1
290
     0
176
     1
290
     0
176
     1
290
     0
176
     1
 90
       50
176
     1
 40
0.0
176
     1
 40
1.0
176
     1
 90
        0
176
     1
 62
    18
420
        0
176
     1
 90
       50
176
     1
 90
        3
176
     1
 62
     5
420
      255
176
     1
290
     0
176
     1
 90
       50
176
     1
 90
       50
176
     1
 90
       50
176
     1
290
     0
176
     1
 90
       50
176
     1
 62
   256
176
     0
 40
1.0
176
     0
 90
        2
176
     1
  1
strokes_ogs.tif
176
     1
290
     0
176
     1
 40
1.0
176
     1
 40
1.0
176
     1
  0
VISUALSTYLE
  5
3F
102
{ACAD_REACTORS
330
29
102
}
330
29
100
AcDbVisualStyle
  2
JitterOff
 70
    20
177
     3
291
     1
 70
    58
 90
        2
176
     0
 90
        2
176
     0
 90
        0
176
     0
 90
        0
176
     0
 40
0.6
176
     0
 40
30.0
176
     0
 62
     7
420
 16777215
176
     0
 90
        1
176
     0
 90
        4
176
     0
 62
     7
176
     0
 62
   257
176
     0
 90
        1
176
     0
 90
        1
176
     0
 40
1.0
176
     0
 90
       10
176
     2
 62
     7
176
     0
 40
1.0
176
     0
 90
        1
176
     0
 90
        6
176
     0
 90
        2
176
     0
 62
     7
176
     0
 90
        5
176
     0
 90
        0
176
     0
 90
        0
176
     0
290
     0
176
     0
 90
        1
176
     0
 40
0.0
176
     0
 90
        0
176
     0
290
     0
176
     1
290
     1
176
     1
290
     1
176
     1
290
     0
176
     1
290
     0
176
     1
290
     0
176
     1
290
     0
176
     1
290
     0
176
     1
290
     0
176
     1
 90
       50
176
     0
 40
0.0
176
     0
 40
1.0
176
     0
 90
        0
176
     0
 62
    18
420
        0
176
     0
 90
       50
176
     0
 90
        3
176
     0
 62
     5
420
      255
176
     0
290
     0
176
     1
 90
       50
176
     0
 90
       50
176
     0
 90
       50
176
     0
290
     0
176
     1
 90
       50
176
     0
 62
   256
176
     0
 40
1.0
176
     0
 90
        2
176
     0
  1
strokes_ogs.tif
176
     0
290
     0
176
     1
 40
1.0
176
     0
 40
1.0
176
     0
  0
VISUALSTYLE
  5
37
102
{ACAD_REACTORS
330
29
102
}
330
29
100
AcDbVisualStyle
  2
Linepattern
 70
    14
177
     3
291
     1
 70
    58
 90
        2
176
     1
 90
        2
176
     1
 90
        0
176
     1
 90
        0
176
     1
 40
0.6
176
     1
 40
30.0
176
     1
 62
     7
420
 16777215
176
     1
 90
        1
176
     1
 90
        4
176
     1
 62
     7
176
     1
 62
   257
176
     1
 90
        7
176
     1
 90
        7
176
     1
 40
1.0
176
     1
 90
        8
176
     1
 62
     7
176
     1
 40
1.0
176
     1
 90
        1
176
     1
 90
        6
176
     1
 90
        2
176
     1
 62
     7
176
     1
 90
        5
176
     1
 90
        0
176
     1
 90
        0
176
     1
290
     0
176
     1
 90
        1
176
     1
 40
0.0
176
     1
 90
        0
176
     1
290
     0
176
     1
290
     1
176
     1
290
     1
176
     1
290
     0
176
     1
290
     0
176
     1
290
     0
176
     1
290
     0
176
     1
290
     0
176
     1
290
     0
176
     1
 90
       50
176
     1
 40
0.0
176
     1
 40
1.0
176
     1
 90
        0
176
     1
 62
    18
420
        0
176
     1
 90
       50
176
     1
 90
        3
176
     1
 62
     5
420
      255
176
     1
290
     0
176
     1
 90
       50
176
     1
 90
       50
176
     1
 90
       50
176
     1
290
     0
176
     1
 90
       50
176
     1
 62
   256
176
     0
 40
1.0
176
     0
 90
        2
176
     1
  1
strokes_ogs.tif
176
     1
290
     0
176
     1
 40
1.0
176
     1
 40
1.0
176
     1
  0
VISUALSTYLE
  5
40
102
{ACAD_REACTORS
330
29
102
}
330
29
100
AcDbVisualStyle
  2
OverhangOff
 70
    21
177
     3
291
     1
 70
    58
 90
        2
176
     0
 90
        2
176
     0
 90
        0
176
     0
 90
        0
176
     0
 40
0.6
176
     0
 40
30.0
176
     0
 62
     7
420
 16777215
176
     0
 90
        1
176
     0
 90
        4
176
     0
 62
     7
176
     0
 62
   257
176
     0
 90
        1
176
     0
 90
        1
176
     0
 40
1.0
176
     0
 90
        9
176
     2
 62
     7
176
     0
 40
1.0
176
     0
 90
        1
176
     0
 90
        6
176
     0
 90
        2
176
     0
 62
     7
176
     0
 90
        5
176
     0
 90
        0
176
     0
 90
        0
176
     0
290
     0
176
     0
 90
        1
176
     0
 40
0.0
176
     0
 90
        0
176
     0
290
     0
176
     1
290
     1
176
     1
290
     1
176
     1
290
     0
176
     1
290
     0
176
     1
290
     0
176
     1
290
     0
176
     1
290
     0
176
     1
290
     0
176
     1
 90
       50
176
     0
 40
0.0
176
     0
 40
1.0
176
     0
 90
        0
176
     0
 62
    18
420
        0
176
     0
 90
       50
176
     0
 90
        3
176
     0
 62
     5
420
      255
176
     0
290
     0
176
     1
 90
       50
176
     0
 90
       50
176
     0
 90
       50
176
     0
290
     0
176
     1
 90
       50
176
     0
 62
   256
176
     0
 40
1.0
176
     0
 90
        2
176
     0
  1
strokes_ogs.tif
176
     0
290
     0
176
     1
 40
1.0
176
     0
 40
1.0
176
     0
  0
VISUALSTYLE
  5
33
102
{ACAD_REACTORS
330
29
102
}
330
29
100
AcDbVisualStyle
  2
Realistic
 70
     8
177
     3
291
     0
 70
    58
 90
        2
176
     1
 90
        3
176
     1
 90
        0
176
     1
 90
        2
176
     1
 40
0.6
176
     1
 40
30.0
176
     1
 62
     7
420
 16777215
176
     1
 90
        0
176
     1
 90
        0
176
     1
 62
     7
176
     1
 62
   257
176
     1
 90
        1
176
     1
 90
        1
176
     1
 40
1.0
176
     1
 90
        8
176
     1
 62
   257
176
     1
 40
1.0
176
     1
 90
        1
176
     1
 90
        6
176
     1
 90
        2
176
     1
 62
     7
176
     1
 90
        3
176
     1
 90
        0
176
     1
 90
        0
176
     1
290
     0
176
     1
 90
       13
176
     1
 40
0.0
176
     1
 90
        0
176
     1
290
     0
176
     1
290
     1
176
     1
290
     1
176
     1
290
     0
176
     1
290
     0
176
     1
290
     0
176
     1
290
     0
176
     1
290
     0
176
     1
290
     0
176
     1
 90
       50
176
     1
 40
0.0
176
     1
 40
1.0
176
     1
 90
        0
176
     1
 62
    18
420
        0
176
     1
 90
       50
176
     1
 90
        3
176
     1
 62
     5
420
      255
176
     1
290
     0
176
     1
 90
       50
176
     1
 90
       50
176
     1
 90
       50
176
     1
290
     0
176
     1
 90
       50
176
     1
 62
   256
176
     0
 40
1.0
176
     0
 90
        2
176
     1
  1
strokes_ogs.tif
176
     1
290
     0
176
     1
 40
1.0
176
     1
 40
1.0
176
     1
  0
VISUALSTYLE
  5
3E
102
{ACAD_REACTORS
330
29
102
}
330
29
100
AcDbVisualStyle
  2
Shaded
 70
    27
177
     3
291
     0
 70
    58
 90
        2
176
     1
 90
        2
176
     1
 90
        1
176
     1
 90
        2
176
     1
 40
0.6
176
     1
 40
30.0
176
     1
 62
     7
420
 16777215
176
     1
 90
        0
176
     1
 90
        4
176
     1
 62
     7
176
     1
 62
   257
176
     1
 90
        1
176
     1
 90
        1
176
     1
 40
1.0
176
     1
 90
        8
176
     1
 62
   257
176
     1
 40
1.0
176
     1
 90
        1
176
     1
 90
        6
176
     1
 90
        2
176
     1
 62
     8
420
  7895160
176
     1
 90
        3
176
     1
 90
        0
176
     1
 90
        0
176
     1
290
     0
176
     1
 90
        5
176
     1
 40
0.0
176
     1
 90
        0
176
     1
290
     0
176
     1
290
     1
176
     1
290
     1
176
     1
290
     0
176
     1
290
     0
176
     1
290
     0
176
     1
290
     0
176
     1
290
     0
176
     1
290
     0
176
     1
 90
       50
176
     1
 40
0.0
176
     1
 40
1.0
176
     1
 90
        0
176
     1
 62
    18
420
        0
176
     1
 90
       50
176
     1
 90
        3
176
     1
 62
     5
420
      255
176
     1
290
     0
176
     1
 90
       50
176
     1
 90
       50
176
     1
 90
       50
176
     1
290
     0
176
     1
 90
       50
176
     1
 62
   256
176
     0
 40
1.0
176
     0
 90
        2
176
     1
  1
strokes_ogs.tif
176
     1
290
     0
176
     1
 40
1.0
176
     1
 40
1.0
176
     1
  0
VISUALSTYLE
  5
3D
102
{ACAD_REACTORS
330
29
102
}
330
29
100
AcDbVisualStyle
  2
Shaded with edges
 70
    26
177
     3
291
     0
 70
    58
 90
        2
176
     1
 90
        2
176
     1
 90
        1
176
     1
 90
        2
176
     1
 40
0.6
176
     1
 40
30.0
176
     1
 62
     7
420
 16777215
176
     1
 90
        1
176
     1
 90
        2
176
     1
 62
     7
176
     1
 62
   257
176
     1
 90
        2
176
     1
 90
        1
176
     1
 40
1.0
176
     1
 90
        8
176
     1
 62
   257
176
     1
 40
1.0
176
     1
 90
        1
176
     1
 90
        6
176
     1
 90
        2
176
     1
 62
     7
176
     1
 90
        3
176
     1
 90
        0
176
     1
 90
        0
176
     1
290
     0
176
     1
 90
        5
176
     1
 40
0.0
176
     1
 90
        0
176
     1
290
     0
176
     1
290
     1
176
     1
290
     1
176
     1
290
     0
176
     1
290
     0
176
     1
290
     0
176
     1
290
     0
176
     1
290
     0
176
     1
290
     0
176
     1
 90
       50
176
     1
 40
0.0
176
     1
 40
1.0
176
     1
 90
        0
176
     1
 62
    18
420
        0
176
     1
 90
       50
176
     1
 90
        3
176
     1
 62
     5
420
      255
176
     1
290
     0
176
     1
 90
       50
176
     1
 90
       50
176
     1
 90
       50
176
     1
290
     0
176
     1
 90
       50
176
     1
 62
   256
176
     0
 40
1.0
176
     0
 90
        2
176
     1
  1
strokes_ogs.tif
176
     1
290
     0
176
     1
 40
1.0
176
     1
 40
1.0
176
     1
  0
VISUALSTYLE
  5
3A
102
{ACAD_REACTORS
330
29
102
}
330
29
100
AcDbVisualStyle
  2
Shades of Gray
 70
    23
177
     3
291
     0
 70
    58
 90
        2
176
     1
 90
        2
176
     1
 90
        3
176
     1
 90
        0
176
     1
 40
0.6
176
     1
 40
30.0
176
     1
 62
     7
420
 16777215
176
     1
 90
        2
176
     1
 90
        2
176
     1
 62
     7
176
     1
 62
     7
176
     1
 90
        1
176
     1
 90
        1
176
     1
 40
40.0
176
     1
 90
        8
176
     1
 62
     7
176
     1
 40
1.0
176
     1
 90
        1
176
     1
 90
        6
176
     1
 90
        2
176
     1
 62
     7
176
     1
 90
        3
176
     1
 90
        0
176
     1
 90
        0
176
     1
290
     0
176
     1
 90
        1
176
     1
 40
0.0
176
     1
 90
        0
176
     1
290
     0
176
     1
290
     1
176
     1
290
     1
176
     1
290
     0
176
     1
290
     0
176
     1
290
     0
176
     1
290
     0
176
     1
290
     0
176
     1
290
     0
176
     1
 90
       50
176
     1
 40
0.0
176
     1
 40
1.0
176
     1
 90
        0
176
     1
 62
    18
420
        0
176
     1
 90
       50
176
     1
 90
        3
176
     1
 62
     5
420
      255
176
     1
290
     0
176
     1
 90
       50
176
     1
 90
       50
176
     1
 90
       50
176
     1
290
     0
176
     1
 90
       50
176
     1
 62
   256
176
     0
 40
1.0
176
     0
 90
        2
176
     1
  1
strokes_ogs.tif
176
     1
290
     0
176
     1
 40
1.0
176
     1
 40
1.0
176
     1
  0
VISUALSTYLE
  5
3B
102
{ACAD_REACTORS
330
29
102
}
330
29
100
AcDbVisualStyle
  2
Sketchy
 70
    24
177
     3
291
     0
 70
    58
 90
        1
176
     1
 90
        2
176
     1
 90
        2
176
     1
 90
        0
176
     1
 40
0.6
176
     1
 40
30.0
176
     1
 62
     7
420
 16777215
176
     1
 90
        2
176
     1
 90
        2
176
     1
 62
     7
176
     1
 62
     7
176
     1
 90
        1
176
     1
 90
        1
176
     1
 40
40.0
176
     1
 90
       11
176
     1
 62
     7
176
     1
 40
1.0
176
     1
 90
        1
176
     1
 90
        6
176
     1
 90
        2
176
     1
 62
     7
176
     1
 90
        6
176
     1
 90
        0
176
     1
 90
        0
176
     1
290
     0
176
     1
 90
        1
176
     1
 40
0.0
176
     1
 90
        0
176
     1
290
     0
176
     1
290
     1
176
     1
290
     1
176
     1
290
     0
176
     1
290
     0
176
     1
290
     0
176
     1
290
     0
176
     1
290
     0
176
     1
290
     0
176
     1
 90
       50
176
     1
 40
0.0
176
     1
 40
1.0
176
     1
 90
        0
176
     1
 62
    18
420
        0
176
     1
 90
       50
176
     1
 90
        3
176
     1
 62
     5
420
      255
176
     1
290
     0
176
     1
 90
       50
176
     1
 90
       50
176
     1
 90
       50
176
     1
290
     0
176
     1
 90
       50
176
     1
 62
   256
176
     0
 40
1.0
176
     0
 90
        2
176
     1
  1
strokes_ogs.tif
176
     1
290
     0
176
     1
 40
1.0
176
     1
 40
1.0
176
     1
  0
VISUALSTYLE
  5
36
102
{ACAD_REACTORS
330
29
102
}
330
29
100
AcDbVisualStyle
  2
Thicken
 70
    13
177
     3
291
     1
 70
    58
 90
        2
176
     1
 90
        2
176
     1
 90
        0
176
     1
 90
        0
176
     1
 40
0.6
176
     1
 40
30.0
176
     1
 62
     7
420
 16777215
176
     1
 90
        1
176
     1
 90
        4
176
     1
 62
     7
176
     1
 62
   257
176
     1
 90
        1
176
     1
 90
        1
176
     1
 40
1.0
176
     1
 90
       12
176
     1
 62
     7
176
     1
 40
1.0
176
     1
 90
        1
176
     1
 90
        6
176
     1
 90
        2
176
     1
 62
     7
176
     1
 90
        5
176
     1
 90
        0
176
     1
 90
        0
176
     1
290
     0
176
     1
 90
        1
176
     1
 40
0.0
176
     1
 90
        0
176
     1
290
     0
176
     1
290
     1
176
     1
290
     1
176
     1
290
     0
176
     1
290
     0
176
     1
290
     0
176
     1
290
     0
176
     1
290
     0
176
     1
290
     0
176
     1
 90
       50
176
     1
 40
0.0
176
     1
 40
1.0
176
     1
 90
        0
176
     1
 62
    18
420
        0
176
     1
 90
       50
176
     1
 90
        3
176
     1
 62
     5
420
      255
176
     1
290
     0
176
     1
 90
       50
176
     1
 90
       50
176
     1
 90
       50
176
     1
290
     0
176
     1
 90
       50
176
     1
 62
   256
176
     0
 40
1.0
176
     0
 90
        2
176
     1
  1
strokes_ogs.tif
176
     1
290
     0
176
     1
 40
1.0
176
     1
 40
1.0
176
     1
  0
VISUALSTYLE
  5
30
102
{ACAD_REACTORS
330
29
102
}
330
29
100
AcDbVisualStyle
  2
Wireframe
 70
     5
177
     3
291
     0
 70
    58
 90
        0
176
     1
 90
        2
176
     1
 90
        0
176
     1
 90
        0
176
     1
 40
0.6
176
     1
 40
30.0
176
     1
 62
     7
420
 16777215
176
     1
 90
        1
176
     1
 90
        4
176
     1
 62
     7
176
     1
 62
   257
176
     1
 90
        1
176
     1
 90
        1
176
     1
 40
1.0
176
     1
 90
        0
176
     1
 62
   257
176
     1
 40
1.0
176
     1
 90
        1
176
     1
 90
        6
176
     1
 90
        2
176
     1
 62
     7
176
     1
 90
        3
176
     1
 90
        0
176
     1
 90
        0
176
     1
290
     0
176
     1
 90
        1
176
     1
 40
0.0
176
     1
 90
        0
176
     1
290
     0
176
     1
290
     1
176
     1
290
     1
176
     1
290
     0
176
     1
290
     0
176
     1
290
     0
176
     1
290
     0
176
     1
290
     0
176
     1
290
     0
176
     1
 90
       50
176
     1
 40
0.0
176
     1
 40
1.0
176
     1
 90
        0
176
     1
 62
    18
420
        0
176
     1
 90
       50
176
     1
 90
        3
176
     1
 62
     5
420
      255
176
     1
290
     0
176
     1
 90
       50
176
     1
 90
       50
176
     1
 90
       50
176
     1
290
     0
176
     1
 90
       50
176
     1
 62
   256
176
     0
 40
1.0
176
     0
 90
        2
176
     1
  1
strokes_ogs.tif
176
     1
290
     0
176
     1
 40
1.0
176
     1
 40
1.0
176
     1
  0
VISUALSTYLE
  5
3C
102
{ACAD_REACTORS
330
29
102
}
330
29
100
AcDbVisualStyle
  2
X-Ray
 70
    25
177
     3
291
     0
 70
    58
 90
        2
176
     1
 90
        2
176
     1
 90
        1
176
     1
 90
        1
176
     1
 40
0.5
176
     1
 40
30.0
176
     1
 62
     7
420
 16777215
176
     1
 90
        1
176
     1
 90
        0
176
     1
 62
     7
176
     1
 62
   257
176
     1
 90
        1
176
     1
 90
        1
176
     1
 40
1.0
176
     1
 90
        8
176
     1
 62
     7
176
     1
 40
1.0
176
     1
 90
        1
176
     1
 90
        6
176
     1
 90
        2
176
     1
 62
     7
176
     1
 90
        3
176
     1
 90
        0
176
     1
 90
        0
176
     1
290
     0
176
     1
 90
       13
176
     1
 40
0.0
176
     1
 90
        0
176
     1
290
     0
176
     1
290
     1
176
     1
290
     1
176
     1
290
     0
176
     1
290
     0
176
     1
290
     0
176
     1
290
     0
176
     1
290
     0
176
     1
290
     0
176
     1
 90
       50
176
     1
 40
0.0
176
     1
 40
1.0
176
     1
 90
        0
176
     1
 62
    18
420
        0
176
     1
 90
       50
176
     1
 90
        3
176
     1
 62
     5
420
      255
176
     1
290
     0
176
     1
 90
       50
176
     1
 90
       50
176
     1
 90
       50
176
     1
290
     0
176
     1
 90
       50
176
     1
 62
   256
176
     0
 40
1.0
176
     0
 90
        2
176
     1
  1
strokes_ogs.tif
176
     1
290
     0
176
     1
 40
1.0
176
     1
 40
1.0
176
     1
  0
DICTIONARYVAR
  5
74F
102
{ACAD_REACTORS
330
749
102
}
330
749
100
DictionaryVariables
280
     0
  1
1:1
  0
DICTIONARYVAR
  5
74B
102
{ACAD_REACTORS
330
749
102
}
330
749
100
DictionaryVariables
280
     0
  1
STANDARD
  0
DICTIONARYVAR
  5
74A
102
{ACAD_REACTORS
330
749
102
}
330
749
100
DictionaryVariables
280
     0
  1
STANDARD
  0
DICTIONARYVAR
  5
74C
102
{ACAD_REACTORS
330
749
102
}
330
749
100
DictionaryVariables
280
     0
  1
Imperial24
  0
DICTIONARYVAR
  5
74D
102
{ACAD_REACTORS
330
749
102
}
330
749
100
DictionaryVariables
280
     0
  1
Imperial24
  0
DICTIONARYVAR
  5
751
102
{ACAD_REACTORS
330
749
102
}
330
749
100
DictionaryVariables
280
     0
  1
1
  0
DICTIONARYVAR
  5
752
102
{ACAD_REACTORS
330
749
102
}
330
749
100
DictionaryVariables
280
     0
  1
15
  0
DICTIONARYVAR
  5
750
102
{ACAD_REACTORS
330
749
102
}
330
749
100
DictionaryVariables
280
     0
  1
0
  0
DICTIONARYVAR
  5
74E
102
{ACAD_REACTORS
330
749
102
}
330
749
100
DictionaryVariables
280
     0
  1
0
  0
DICTIONARY
  5
1A
330
19
100
AcDbDictionary
280
     1
281
     1
  3
BUMPTILE
360
1C
  3
DIFFUSETILE
360
1B
  3
OPACITYTILE
360
1F
  3
REFLECTIONTILE
360
1E
  3
REFRACTIONTILE
360
20
  3
SPECULARTILE
360
1D
  0
DICTIONARY
  5
12
330
11
100
AcDbDictionary
280
     1
281
     1
  3
BUMPTILE
360
14
  3
DIFFUSETILE
360
13
  3
OPACITYTILE
360
17
  3
REFLECTIONTILE
360
16
  3
REFRACTIONTILE
360
18
  3
SPECULARTILE
360
15
  0
DICTIONARY
  5
22
330
21
100
AcDbDictionary
280
     1
281
     1
  3
BUMPTILE
360
24
  3
DIFFUSETILE
360
23
  3
OPACITYTILE
360
27
  3
REFLECTIONTILE
360
26
  3
REFRACTIONTILE
360
28
  3
SPECULARTILE
360
25
  0
DICTIONARY
  5
7C8
330
64
100
AcDbDictionary
280
     1
281
     1
  3
ACAD_ROUNDTRIP_2008_TABLESTYLE_CELLSTYLEMAP
360
7C9
  0
XRECORD
  5
1C
102
{ACAD_REACTORS
330
1A
102
}
330
1A
100
AcDbXrecord
280
     1
270
     1
271
     1
  0
XRECORD
  5
1B
102
{ACAD_REACTORS
330
1A
102
}
330
1A
100
AcDbXrecord
280
     1
270
     1
271
     1
  0
XRECORD
  5
1F
102
{ACAD_REACTORS
330
1A
102
}
330
1A
100
AcDbXrecord
280
     1
270
     1
271
     1
  0
XRECORD
  5
1E
102
{ACAD_REACTORS
330
1A
102
}
330
1A
100
AcDbXrecord
280
     1
270
     1
271
     1
  0
XRECORD
  5
20
102
{ACAD_REACTORS
330
1A
102
}
330
1A
100
AcDbXrecord
280
     1
270
     1
271
     1
  0
XRECORD
  5
1D
102
{ACAD_REACTORS
330
1A
102
}
330
1A
100
AcDbXrecord
280
     1
270
     1
271
     1
  0
XRECORD
  5
14
102
{ACAD_REACTORS
330
12
102
}
330
12
100
AcDbXrecord
280
     1
270
     1
271
     1
  0
XRECORD
  5
13
102
{ACAD_REACTORS
330
12
102
}
330
12
100
AcDbXrecord
280
     1
270
     1
271
     1
  0
XRECORD
  5
17
102
{ACAD_REACTORS
330
12
102
}
330
12
100
AcDbXrecord
280
     1
270
     1
271
     1
  0
XRECORD
  5
16
102
{ACAD_REACTORS
330
12
102
}
330
12
100
AcDbXrecord
280
     1
270
     1
271
     1
  0
XRECORD
  5
18
102
{ACAD_REACTORS
330
12
102
}
330
12
100
AcDbXrecord
280
     1
270
     1
271
     1
  0
XRECORD
  5
15
102
{ACAD_REACTORS
330
12
102
}
330
12
100
AcDbXrecord
280
     1
270
     1
271
     1
  0
XRECORD
  5
24
102
{ACAD_REACTORS
330
22
102
}
330
22
100
AcDbXrecord
280
     1
270
     1
271
     1
  0
XRECORD
  5
23
102
{ACAD_REACTORS
330
22
102
}
330
22
100
AcDbXrecord
280
     1
270
     1
271
     1
  0
XRECORD
  5
27
102
{ACAD_REACTORS
330
22
102
}
330
22
100
AcDbXrecord
280
     1
270
     1
271
     1
  0
XRECORD
  5
26
102
{ACAD_REACTORS
330
22
102
}
330
22
100
AcDbXrecord
280
     1
270
     1
271
     1
  0
XRECORD
  5
28
102
{ACAD_REACTORS
330
22
102
}
330
22
100
AcDbXrecord
280
     1
270
     1
271
     1
  0
XRECORD
  5
25
102
{ACAD_REACTORS
330
22
102
}
330
22
100
AcDbXrecord
280
     1
270
     1
271
     1
  0
CELLSTYLEMAP
  5
7C9
102
{ACAD_REACTORS
330
7C8
102
}
330
7C8
100
AcDbCellStyleMap
 90
        3
300
CELLSTYLE
  1
TABLEFORMAT_BEGIN
 90
        5
170
     1
 91
        0
 92
    32768
 62
   257
 93
        1
300
CONTENTFORMAT
  1
CONTENTFORMAT_BEGIN
 90
        0
 91
        0
 92
      512
 93
        0
300

 40
0.0
140
1.0
 94
        5
 62
     0
340
55
144
0.25
309
CONTENTFORMAT_END
171
     0
 94
        0
309
TABLEFORMAT_END
  1
CELLSTYLE_BEGIN
 90
        1
 91
        1
300
_TITLE
309
CELLSTYLE_END
300
CELLSTYLE
  1
TABLEFORMAT_BEGIN
 90
        5
170
     1
 91
        0
 92
        0
 62
   257
 93
        1
300
CONTENTFORMAT
  1
CONTENTFORMAT_BEGIN
 90
        0
 91
        0
 92
      512
 93
        0
300

 40
0.0
140
1.0
 94
        5
 62
     0
340
55
144
0.18
309
CONTENTFORMAT_END
171
     0
 94
        0
309
TABLEFORMAT_END
  1
CELLSTYLE_BEGIN
 90
        2
 91
        1
300
_HEADER
309
CELLSTYLE_END
300
CELLSTYLE
  1
TABLEFORMAT_BEGIN
 90
        5
170
     1
 91
        0
 92
        0
 62
   257
 93
        1
300
CONTENTFORMAT
  1
CONTENTFORMAT_BEGIN
 90
        0
 91
        0
 92
      512
 93
        0
300

 40
0.0
140
1.0
 94
        2
 62
     0
340
55
144
0.18
309
CONTENTFORMAT_END
171
     0
 94
        0
309
TABLEFORMAT_END
  1
CELLSTYLE_BEGIN
 90
        3
 91
        2
300
_DATA
309
CELLSTYLE_END
  0
ENDSEC
  0
SECTION
  2
ACDSDATA
 70
     2
 71
     8
  0
ACDSSCHEMA
 90
        0
  1
AcDb_Thumbnail_Schema
  2
AcDbDs::ID
280
    10
 91
        8
  2
Thumbnail_Data
280
    15
 91
        0
101
ACDSRECORD
 95
        0
 90
        1
  2
AcDbDs::TreatedAsObjectData
280
     1
291
     1
101
ACDSRECORD
 95
        0
 90
        2
  2
AcDbDs::Legacy
280
     1
291
     1
101
ACDSRECORD
  1
AcDbDs::ID
 90
        3
  2
AcDs:Indexable
280
     1
291
     1
101
ACDSRECORD
  1
AcDbDs::ID
 90
        4
  2
AcDbDs::HandleAttribute
280
     7
282
     1
  0
ACDSSCHEMA
 90
        1
  1
AcDbDs::TreatedAsObjectDataSchema
  2
AcDbDs::TreatedAsObjectData
280
     1
 91
        0
  0
ACDSSCHEMA
 90
        2
  1
AcDbDs::LegacySchema
  2
AcDbDs::Legacy
280
     1
 91
        0
  0
ACDSSCHEMA
 90
        3
  1
AcDbDs::IndexedPropertySchema
  2
AcDs:Indexable
280
     1
 91
        0
  0
ACDSSCHEMA
 90
        4
  1
AcDbDs::HandleAttributeSchema
  2
AcDbDs::HandleAttribute
280
     7
 91
        1
284
     1
  0
ACDSRECORD
 90
        0
  2
AcDbDs::ID
280
    10
320
72
  2
Thumbnail_Data
280
    15
 94
     1256
310
89504E470D0A1A0A0000000D49484452000001000000007208030000008B31FF2A00000300504C5445212830FFFFFF2128300000000000000000000000000000000000000000000000000000330000660000990000CC0000FF0033000033330033660033990033CC0033FF0066000066330066660066990066CC0066FF0099
310
000099330099660099990099CC0099FF00CC0000CC3300CC6600CC9900CCCC00CCFF00FF0000FF3300FF6600FF9900FFCC00FFFF3300003300333300663300993300CC3300FF3333003333333333663333993333CC3333FF3366003366333366663366993366CC3366FF3399003399333399663399993399CC3399FF33CC00
310
33CC3333CC6633CC9933CCCC33CCFF33FF0033FF3333FF6633FF9933FFCC33FFFF6600006600336600666600996600CC6600FF6633006633336633666633996633CC6633FF6666006666336666666666996666CC6666FF6699006699336699666699996699CC6699FF66CC0066CC3366CC6666CC9966CCCC66CCFF66FF0066
310
FF3366FF6666FF9966FFCC66FFFF9900009900339900669900999900CC9900FF9933009933339933669933999933CC9933FF9966009966339966669966999966CC9966FF9999009999339999669999999999CC9999FF99CC0099CC3399CC6699CC9999CCCC99CCFF99FF0099FF3399FF6699FF9999FFCC99FFFFCC0000CC00
310
33CC0066CC0099CC00CCCC00FFCC3300CC3333CC3366CC3399CC33CCCC33FFCC6600CC6633CC6666CC6699CC66CCCC66FFCC9900CC9933CC9966CC9999CC99CCCC99FFCCCC00CCCC33CCCC66CCCC99CCCCCCCCCCFFCCFF00CCFF33CCFF66CCFF99CCFFCCCCFFFFFF0000FF0033FF0066FF0099FF00CCFF00FFFF3300FF3333
310
FF3366FF3399FF33CCFF33FFFF6600FF6633FF6666FF6699FF66CCFF66FFFF9900FF9933FF9966FF9999FF99CCFF99FFFFCC00FFCC33FFCC66FFCC99FFCCCCFFCCFFFFFF00FFFF33FFFF66FFFF99FFFFCCFFFFFF0000000D0D0D1A1A1A2828283535354343435050505D5D5D6B6B6B787878868686939393A1A1A1AEAEAEBB
310
BBBBC9C9C9D6D6D6E4E4E4F1F1F1FFFFFF0000000000000000000000000000000000000000000000000000000000002E4550F1000001A34944415478DAED9B4B7283301005E738BEFFDDDE3EC6C18E0C888F44A5A4A7EE2C820B2DACF6D320063BE2DFD1F3EFC4A033A3FA040108400002108000040C2DE0706EF216703C37
310
0509A00620000108400002DA7BF7D7301490AA383E764CC005019B093837B5766B806AC7EA6B1D65D757FB09281DACFC0B15AB6E3300DBA395FE4F53A0B938A86D017725E077B649D4DF476ADDC04D01581D283FC25340E404B45D046A9740DE89A20B03B545706B1BF12D6075C2320152725ABB27BC6A80362E85A9001DD5
310
85DE13B05CEE7FAF953BE15503B202F266AC04ACA7A5F40651672E0D5D2F81F51D50B67DB0D350682402676E87C38F74768A8363191AB8A123D47B02AA7B82000000000000C0DDE030FD8049C7C3C0497147683A7C84418FA4B027383DFC7F7DFEFD47A06CAC3E8F3FE4B204AE0D9EBFFED17F028A1F8C7C040409A0060C99
310
001B01C5DB2693CB6045115C6C843ADD3B5714C159C0EEB700E5158145005E02A27301C327E0C61A3056026C0414D7009B2550F88B119F221817040445D0712354D81475E90902000000000000000000000000000000000000403FFC005C38E4067E20BE590000000049454E44AE426082
  0
ENDSEC
  0
EOF
